<mxfile host="app.diagrams.net" modified="2022-06-06T14:42:54.353Z" agent="5.0 (Macintosh)" etag="AYMNeQNBEYgvAQw9zXZX" version="19.0.0" type="github" pages="4">
  <diagram id="EQP9zRXKZEcUOoc9K0wP" name="Page-1">
    <mxGraphModel dx="1395" dy="1329" grid="0" gridSize="10" guides="1" tooltips="1" connect="1" arrows="1" fold="1" page="0" pageScale="1" pageWidth="827" pageHeight="1169" math="0" shadow="0">
      <root>
        <mxCell id="0" />
        <mxCell id="1" parent="0" />
        <mxCell id="fNARwGOZfBez5ngFtpuY-2" value="Citizen" style="shape=umlActor;verticalLabelPosition=bottom;verticalAlign=top;html=1;outlineConnect=0;" vertex="1" parent="1">
          <mxGeometry x="63" y="-184" width="30" height="60" as="geometry" />
        </mxCell>
        <mxCell id="fNARwGOZfBez5ngFtpuY-3" value="jhu" style="ellipse;whiteSpace=wrap;html=1;" vertex="1" parent="1">
          <mxGeometry x="543" y="-201" width="120" height="50" as="geometry" />
        </mxCell>
        <mxCell id="fNARwGOZfBez5ngFtpuY-4" value="" style="endArrow=classic;html=1;exitX=0;exitY=0.5;exitDx=0;exitDy=0;" edge="1" parent="1" source="fNARwGOZfBez5ngFtpuY-3">
          <mxGeometry width="50" height="50" relative="1" as="geometry">
            <mxPoint x="382" y="-178.5" as="sourcePoint" />
            <mxPoint x="417" y="-188" as="targetPoint" />
          </mxGeometry>
        </mxCell>
        <mxCell id="fNARwGOZfBez5ngFtpuY-5" value="csbs" style="ellipse;whiteSpace=wrap;html=1;" vertex="1" parent="1">
          <mxGeometry x="543" y="-276" width="120" height="50" as="geometry" />
        </mxCell>
        <mxCell id="fNARwGOZfBez5ngFtpuY-6" value="nyt" style="ellipse;whiteSpace=wrap;html=1;" vertex="1" parent="1">
          <mxGeometry x="543" y="-126" width="120" height="50" as="geometry" />
        </mxCell>
        <mxCell id="fNARwGOZfBez5ngFtpuY-7" value="" style="endArrow=classic;html=1;exitX=0;exitY=0.5;exitDx=0;exitDy=0;" edge="1" parent="1" source="fNARwGOZfBez5ngFtpuY-5">
          <mxGeometry width="50" height="50" relative="1" as="geometry">
            <mxPoint x="600" y="-253" as="sourcePoint" />
            <mxPoint x="422" y="-200" as="targetPoint" />
          </mxGeometry>
        </mxCell>
        <mxCell id="fNARwGOZfBez5ngFtpuY-8" value="" style="endArrow=classic;html=1;exitX=0.025;exitY=0.3;exitDx=0;exitDy=0;exitPerimeter=0;" edge="1" parent="1" source="fNARwGOZfBez5ngFtpuY-6">
          <mxGeometry width="50" height="50" relative="1" as="geometry">
            <mxPoint x="612" y="-130" as="sourcePoint" />
            <mxPoint x="418" y="-166" as="targetPoint" />
          </mxGeometry>
        </mxCell>
        <mxCell id="fNARwGOZfBez5ngFtpuY-9" value="" style="rounded=0;whiteSpace=wrap;html=1;" vertex="1" parent="1">
          <mxGeometry x="183" y="-316" width="234" height="312" as="geometry" />
        </mxCell>
        <mxCell id="fNARwGOZfBez5ngFtpuY-10" value="View overall Coronavirus data" style="ellipse;whiteSpace=wrap;html=1;" vertex="1" parent="1">
          <mxGeometry x="225" y="-243" width="120" height="50" as="geometry" />
        </mxCell>
        <mxCell id="fNARwGOZfBez5ngFtpuY-11" value="&lt;div&gt;View Coronavirus data&lt;/div&gt;&lt;div&gt;for specific location&lt;br&gt;&lt;/div&gt;" style="ellipse;whiteSpace=wrap;html=1;" vertex="1" parent="1">
          <mxGeometry x="225" y="-166" width="120" height="50" as="geometry" />
        </mxCell>
        <mxCell id="fNARwGOZfBez5ngFtpuY-12" value="&lt;div&gt;View everyday&#39;s Coronavirus data&lt;/div&gt;&lt;div&gt;for specific location&lt;br&gt;&lt;/div&gt;" style="ellipse;whiteSpace=wrap;html=1;" vertex="1" parent="1">
          <mxGeometry x="227" y="-97" width="130" height="66" as="geometry" />
        </mxCell>
        <mxCell id="fNARwGOZfBez5ngFtpuY-13" value="" style="endArrow=classic;html=1;" edge="1" parent="1">
          <mxGeometry width="50" height="50" relative="1" as="geometry">
            <mxPoint x="97" y="-165" as="sourcePoint" />
            <mxPoint x="222" y="-215" as="targetPoint" />
          </mxGeometry>
        </mxCell>
        <mxCell id="fNARwGOZfBez5ngFtpuY-14" value="" style="endArrow=classic;html=1;entryX=0;entryY=0.5;entryDx=0;entryDy=0;" edge="1" parent="1" target="fNARwGOZfBez5ngFtpuY-11">
          <mxGeometry width="50" height="50" relative="1" as="geometry">
            <mxPoint x="99" y="-150" as="sourcePoint" />
            <mxPoint x="149" y="-142" as="targetPoint" />
          </mxGeometry>
        </mxCell>
        <mxCell id="fNARwGOZfBez5ngFtpuY-15" value="" style="endArrow=classic;html=1;" edge="1" parent="1">
          <mxGeometry width="50" height="50" relative="1" as="geometry">
            <mxPoint x="102" y="-140" as="sourcePoint" />
            <mxPoint x="224" y="-74" as="targetPoint" />
          </mxGeometry>
        </mxCell>
        <mxCell id="fNARwGOZfBez5ngFtpuY-16" value="Web Interface" style="text;html=1;strokeColor=none;fillColor=none;align=center;verticalAlign=middle;whiteSpace=wrap;rounded=0;" vertex="1" parent="1">
          <mxGeometry x="246" y="-303" width="103" height="20" as="geometry" />
        </mxCell>
        <mxCell id="fNARwGOZfBez5ngFtpuY-17" value="Person" style="swimlane;fontStyle=0;childLayout=stackLayout;horizontal=1;startSize=26;horizontalStack=0;resizeParent=1;resizeParentMax=0;resizeLast=0;collapsible=1;marginBottom=0;" vertex="1" parent="1">
          <mxGeometry x="55" y="1179" width="140" height="52" as="geometry" />
        </mxCell>
        <mxCell id="fNARwGOZfBez5ngFtpuY-18" value="Location" style="swimlane;fontStyle=0;childLayout=stackLayout;horizontal=1;startSize=26;horizontalStack=0;resizeParent=1;resizeParentMax=0;resizeLast=0;collapsible=1;marginBottom=0;" vertex="1" parent="1">
          <mxGeometry x="376" y="1179" width="140" height="78" as="geometry" />
        </mxCell>
        <mxCell id="fNARwGOZfBez5ngFtpuY-19" value="country" style="text;strokeColor=none;fillColor=none;align=left;verticalAlign=top;spacingLeft=4;spacingRight=4;overflow=hidden;rotatable=0;points=[[0,0.5],[1,0.5]];portConstraint=eastwest;" vertex="1" parent="fNARwGOZfBez5ngFtpuY-18">
          <mxGeometry y="26" width="140" height="26" as="geometry" />
        </mxCell>
        <mxCell id="fNARwGOZfBez5ngFtpuY-20" value="state" style="text;strokeColor=none;fillColor=none;align=left;verticalAlign=top;spacingLeft=4;spacingRight=4;overflow=hidden;rotatable=0;points=[[0,0.5],[1,0.5]];portConstraint=eastwest;" vertex="1" parent="fNARwGOZfBez5ngFtpuY-18">
          <mxGeometry y="52" width="140" height="26" as="geometry" />
        </mxCell>
        <mxCell id="fNARwGOZfBez5ngFtpuY-21" value="" style="endArrow=none;html=1;exitX=1;exitY=0.5;exitDx=0;exitDy=0;" edge="1" parent="1" source="fNARwGOZfBez5ngFtpuY-17">
          <mxGeometry width="50" height="50" relative="1" as="geometry">
            <mxPoint x="238" y="1238" as="sourcePoint" />
            <mxPoint x="375" y="1205" as="targetPoint" />
          </mxGeometry>
        </mxCell>
        <mxCell id="fNARwGOZfBez5ngFtpuY-22" value="Coronavirus Data" style="swimlane;fontStyle=0;childLayout=stackLayout;horizontal=1;startSize=26;horizontalStack=0;resizeParent=1;resizeParentMax=0;resizeLast=0;collapsible=1;marginBottom=0;" vertex="1" parent="1">
          <mxGeometry x="55" y="1341" width="140" height="104" as="geometry" />
        </mxCell>
        <mxCell id="fNARwGOZfBez5ngFtpuY-23" value="cofirmed" style="text;strokeColor=none;fillColor=none;align=left;verticalAlign=top;spacingLeft=4;spacingRight=4;overflow=hidden;rotatable=0;points=[[0,0.5],[1,0.5]];portConstraint=eastwest;" vertex="1" parent="fNARwGOZfBez5ngFtpuY-22">
          <mxGeometry y="26" width="140" height="26" as="geometry" />
        </mxCell>
        <mxCell id="fNARwGOZfBez5ngFtpuY-24" value="Death" style="text;strokeColor=none;fillColor=none;align=left;verticalAlign=top;spacingLeft=4;spacingRight=4;overflow=hidden;rotatable=0;points=[[0,0.5],[1,0.5]];portConstraint=eastwest;" vertex="1" parent="fNARwGOZfBez5ngFtpuY-22">
          <mxGeometry y="52" width="140" height="26" as="geometry" />
        </mxCell>
        <mxCell id="fNARwGOZfBez5ngFtpuY-25" value="Recover" style="text;strokeColor=none;fillColor=none;align=left;verticalAlign=top;spacingLeft=4;spacingRight=4;overflow=hidden;rotatable=0;points=[[0,0.5],[1,0.5]];portConstraint=eastwest;" vertex="1" parent="fNARwGOZfBez5ngFtpuY-22">
          <mxGeometry y="78" width="140" height="26" as="geometry" />
        </mxCell>
        <mxCell id="fNARwGOZfBez5ngFtpuY-26" value="Data Source" style="swimlane;fontStyle=0;childLayout=stackLayout;horizontal=1;startSize=26;horizontalStack=0;resizeParent=1;resizeParentMax=0;resizeLast=0;collapsible=1;marginBottom=0;" vertex="1" parent="1">
          <mxGeometry x="314" y="1360" width="140" height="104" as="geometry" />
        </mxCell>
        <mxCell id="fNARwGOZfBez5ngFtpuY-27" value="jhu" style="text;strokeColor=none;fillColor=none;align=left;verticalAlign=top;spacingLeft=4;spacingRight=4;overflow=hidden;rotatable=0;points=[[0,0.5],[1,0.5]];portConstraint=eastwest;" vertex="1" parent="fNARwGOZfBez5ngFtpuY-26">
          <mxGeometry y="26" width="140" height="26" as="geometry" />
        </mxCell>
        <mxCell id="fNARwGOZfBez5ngFtpuY-28" value="csbs" style="text;strokeColor=none;fillColor=none;align=left;verticalAlign=top;spacingLeft=4;spacingRight=4;overflow=hidden;rotatable=0;points=[[0,0.5],[1,0.5]];portConstraint=eastwest;" vertex="1" parent="fNARwGOZfBez5ngFtpuY-26">
          <mxGeometry y="52" width="140" height="26" as="geometry" />
        </mxCell>
        <mxCell id="fNARwGOZfBez5ngFtpuY-29" value="nyt" style="text;strokeColor=none;fillColor=none;align=left;verticalAlign=top;spacingLeft=4;spacingRight=4;overflow=hidden;rotatable=0;points=[[0,0.5],[1,0.5]];portConstraint=eastwest;" vertex="1" parent="fNARwGOZfBez5ngFtpuY-26">
          <mxGeometry y="78" width="140" height="26" as="geometry" />
        </mxCell>
        <mxCell id="fNARwGOZfBez5ngFtpuY-30" value="" style="endArrow=none;html=1;entryX=0.5;entryY=1;entryDx=0;entryDy=0;" edge="1" parent="1" source="fNARwGOZfBez5ngFtpuY-22" target="fNARwGOZfBez5ngFtpuY-17">
          <mxGeometry width="50" height="50" relative="1" as="geometry">
            <mxPoint x="385" y="1525" as="sourcePoint" />
            <mxPoint x="435" y="1475" as="targetPoint" />
          </mxGeometry>
        </mxCell>
        <mxCell id="fNARwGOZfBez5ngFtpuY-31" value="lives in" style="text;html=1;strokeColor=none;fillColor=none;align=center;verticalAlign=middle;whiteSpace=wrap;rounded=0;" vertex="1" parent="1">
          <mxGeometry x="265" y="1182" width="40" height="20" as="geometry" />
        </mxCell>
        <mxCell id="fNARwGOZfBez5ngFtpuY-32" value="request" style="text;html=1;strokeColor=none;fillColor=none;align=center;verticalAlign=middle;whiteSpace=wrap;rounded=0;" vertex="1" parent="1">
          <mxGeometry x="133" y="1283" width="40" height="20" as="geometry" />
        </mxCell>
        <mxCell id="fNARwGOZfBez5ngFtpuY-33" value="" style="endArrow=none;html=1;entryX=1;entryY=0.5;entryDx=0;entryDy=0;" edge="1" parent="1" target="fNARwGOZfBez5ngFtpuY-22">
          <mxGeometry width="50" height="50" relative="1" as="geometry">
            <mxPoint x="312" y="1392" as="sourcePoint" />
            <mxPoint x="135" y="1241" as="targetPoint" />
          </mxGeometry>
        </mxCell>
        <mxCell id="fNARwGOZfBez5ngFtpuY-34" value="request" style="text;html=1;strokeColor=none;fillColor=none;align=center;verticalAlign=middle;whiteSpace=wrap;rounded=0;" vertex="1" parent="1">
          <mxGeometry x="235" y="1365" width="40" height="20" as="geometry" />
        </mxCell>
        <mxCell id="fNARwGOZfBez5ngFtpuY-35" value="1" style="text;html=1;strokeColor=none;fillColor=none;align=center;verticalAlign=middle;whiteSpace=wrap;rounded=0;" vertex="1" parent="1">
          <mxGeometry x="115" y="1231" width="40" height="20" as="geometry" />
        </mxCell>
        <mxCell id="fNARwGOZfBez5ngFtpuY-36" value="&amp;gt;1" style="text;html=1;strokeColor=none;fillColor=none;align=center;verticalAlign=middle;whiteSpace=wrap;rounded=0;" vertex="1" parent="1">
          <mxGeometry x="119" y="1319" width="40" height="20" as="geometry" />
        </mxCell>
        <mxCell id="fNARwGOZfBez5ngFtpuY-37" value="1" style="text;html=1;strokeColor=none;fillColor=none;align=center;verticalAlign=middle;whiteSpace=wrap;rounded=0;" vertex="1" parent="1">
          <mxGeometry x="333" y="1184" width="40" height="20" as="geometry" />
        </mxCell>
        <mxCell id="fNARwGOZfBez5ngFtpuY-38" value="1" style="text;html=1;strokeColor=none;fillColor=none;align=center;verticalAlign=middle;whiteSpace=wrap;rounded=0;" vertex="1" parent="1">
          <mxGeometry x="197" y="1184" width="40" height="20" as="geometry" />
        </mxCell>
        <mxCell id="fNARwGOZfBez5ngFtpuY-39" value="1" style="text;html=1;strokeColor=none;fillColor=none;align=center;verticalAlign=middle;whiteSpace=wrap;rounded=0;" vertex="1" parent="1">
          <mxGeometry x="185" y="1372" width="40" height="20" as="geometry" />
        </mxCell>
        <mxCell id="fNARwGOZfBez5ngFtpuY-40" value="&amp;gt;1" style="text;html=1;strokeColor=none;fillColor=none;align=center;verticalAlign=middle;whiteSpace=wrap;rounded=0;" vertex="1" parent="1">
          <mxGeometry x="282" y="1374" width="40" height="20" as="geometry" />
        </mxCell>
        <mxCell id="fNARwGOZfBez5ngFtpuY-41" value="Person" style="swimlane;fontStyle=0;childLayout=stackLayout;horizontal=1;startSize=26;horizontalStack=0;resizeParent=1;resizeParentMax=0;resizeLast=0;collapsible=1;marginBottom=0;" vertex="1" parent="1">
          <mxGeometry x="29" y="1923" width="140" height="104" as="geometry" />
        </mxCell>
        <mxCell id="fNARwGOZfBez5ngFtpuY-42" value="PK id" style="text;strokeColor=none;fillColor=none;align=left;verticalAlign=top;spacingLeft=4;spacingRight=4;overflow=hidden;rotatable=0;points=[[0,0.5],[1,0.5]];portConstraint=eastwest;" vertex="1" parent="fNARwGOZfBez5ngFtpuY-41">
          <mxGeometry y="26" width="140" height="26" as="geometry" />
        </mxCell>
        <mxCell id="fNARwGOZfBez5ngFtpuY-43" value="name" style="text;strokeColor=none;fillColor=none;align=left;verticalAlign=top;spacingLeft=4;spacingRight=4;overflow=hidden;rotatable=0;points=[[0,0.5],[1,0.5]];portConstraint=eastwest;" vertex="1" parent="fNARwGOZfBez5ngFtpuY-41">
          <mxGeometry y="52" width="140" height="26" as="geometry" />
        </mxCell>
        <mxCell id="fNARwGOZfBez5ngFtpuY-44" value="FK location code" style="text;strokeColor=none;fillColor=none;align=left;verticalAlign=top;spacingLeft=4;spacingRight=4;overflow=hidden;rotatable=0;points=[[0,0.5],[1,0.5]];portConstraint=eastwest;" vertex="1" parent="fNARwGOZfBez5ngFtpuY-41">
          <mxGeometry y="78" width="140" height="26" as="geometry" />
        </mxCell>
        <mxCell id="fNARwGOZfBez5ngFtpuY-45" value="Location" style="swimlane;fontStyle=0;childLayout=stackLayout;horizontal=1;startSize=26;horizontalStack=0;resizeParent=1;resizeParentMax=0;resizeLast=0;collapsible=1;marginBottom=0;" vertex="1" parent="1">
          <mxGeometry x="369" y="1923" width="140" height="156" as="geometry" />
        </mxCell>
        <mxCell id="fNARwGOZfBez5ngFtpuY-46" value="state" style="text;strokeColor=none;fillColor=none;align=left;verticalAlign=top;spacingLeft=4;spacingRight=4;overflow=hidden;rotatable=0;points=[[0,0.5],[1,0.5]];portConstraint=eastwest;" vertex="1" parent="fNARwGOZfBez5ngFtpuY-45">
          <mxGeometry y="26" width="140" height="26" as="geometry" />
        </mxCell>
        <mxCell id="fNARwGOZfBez5ngFtpuY-47" value="country" style="text;strokeColor=none;fillColor=none;align=left;verticalAlign=top;spacingLeft=4;spacingRight=4;overflow=hidden;rotatable=0;points=[[0,0.5],[1,0.5]];portConstraint=eastwest;" vertex="1" parent="fNARwGOZfBez5ngFtpuY-45">
          <mxGeometry y="52" width="140" height="26" as="geometry" />
        </mxCell>
        <mxCell id="fNARwGOZfBez5ngFtpuY-48" value="PK code" style="text;strokeColor=none;fillColor=none;align=left;verticalAlign=top;spacingLeft=4;spacingRight=4;overflow=hidden;rotatable=0;points=[[0,0.5],[1,0.5]];portConstraint=eastwest;" vertex="1" parent="fNARwGOZfBez5ngFtpuY-45">
          <mxGeometry y="78" width="140" height="26" as="geometry" />
        </mxCell>
        <mxCell id="fNARwGOZfBez5ngFtpuY-49" value="coordinates" style="text;strokeColor=none;fillColor=none;align=left;verticalAlign=top;spacingLeft=4;spacingRight=4;overflow=hidden;rotatable=0;points=[[0,0.5],[1,0.5]];portConstraint=eastwest;" vertex="1" parent="fNARwGOZfBez5ngFtpuY-45">
          <mxGeometry y="104" width="140" height="26" as="geometry" />
        </mxCell>
        <mxCell id="fNARwGOZfBez5ngFtpuY-50" value="population" style="text;strokeColor=none;fillColor=none;align=left;verticalAlign=top;spacingLeft=4;spacingRight=4;overflow=hidden;rotatable=0;points=[[0,0.5],[1,0.5]];portConstraint=eastwest;" vertex="1" parent="fNARwGOZfBez5ngFtpuY-45">
          <mxGeometry y="130" width="140" height="26" as="geometry" />
        </mxCell>
        <mxCell id="fNARwGOZfBez5ngFtpuY-51" value="Coronavirus Data" style="swimlane;fontStyle=0;childLayout=stackLayout;horizontal=1;startSize=26;horizontalStack=0;resizeParent=1;resizeParentMax=0;resizeLast=0;collapsible=1;marginBottom=0;" vertex="1" parent="1">
          <mxGeometry x="29" y="2085" width="140" height="182" as="geometry" />
        </mxCell>
        <mxCell id="fNARwGOZfBez5ngFtpuY-52" value="Cofirmed" style="text;strokeColor=none;fillColor=none;align=left;verticalAlign=top;spacingLeft=4;spacingRight=4;overflow=hidden;rotatable=0;points=[[0,0.5],[1,0.5]];portConstraint=eastwest;" vertex="1" parent="fNARwGOZfBez5ngFtpuY-51">
          <mxGeometry y="26" width="140" height="26" as="geometry" />
        </mxCell>
        <mxCell id="fNARwGOZfBez5ngFtpuY-53" value="Death" style="text;strokeColor=none;fillColor=none;align=left;verticalAlign=top;spacingLeft=4;spacingRight=4;overflow=hidden;rotatable=0;points=[[0,0.5],[1,0.5]];portConstraint=eastwest;" vertex="1" parent="fNARwGOZfBez5ngFtpuY-51">
          <mxGeometry y="52" width="140" height="26" as="geometry" />
        </mxCell>
        <mxCell id="fNARwGOZfBez5ngFtpuY-54" value="Recover" style="text;strokeColor=none;fillColor=none;align=left;verticalAlign=top;spacingLeft=4;spacingRight=4;overflow=hidden;rotatable=0;points=[[0,0.5],[1,0.5]];portConstraint=eastwest;" vertex="1" parent="fNARwGOZfBez5ngFtpuY-51">
          <mxGeometry y="78" width="140" height="26" as="geometry" />
        </mxCell>
        <mxCell id="fNARwGOZfBez5ngFtpuY-55" value="update time" style="text;strokeColor=none;fillColor=none;align=left;verticalAlign=top;spacingLeft=4;spacingRight=4;overflow=hidden;rotatable=0;points=[[0,0.5],[1,0.5]];portConstraint=eastwest;" vertex="1" parent="fNARwGOZfBez5ngFtpuY-51">
          <mxGeometry y="104" width="140" height="26" as="geometry" />
        </mxCell>
        <mxCell id="fNARwGOZfBez5ngFtpuY-56" value="FK location code" style="text;strokeColor=none;fillColor=none;align=left;verticalAlign=top;spacingLeft=4;spacingRight=4;overflow=hidden;rotatable=0;points=[[0,0.5],[1,0.5]];portConstraint=eastwest;" vertex="1" parent="fNARwGOZfBez5ngFtpuY-51">
          <mxGeometry y="130" width="140" height="26" as="geometry" />
        </mxCell>
        <mxCell id="fNARwGOZfBez5ngFtpuY-57" value="FK from" style="text;strokeColor=none;fillColor=none;align=left;verticalAlign=top;spacingLeft=4;spacingRight=4;overflow=hidden;rotatable=0;points=[[0,0.5],[1,0.5]];portConstraint=eastwest;" vertex="1" parent="fNARwGOZfBez5ngFtpuY-51">
          <mxGeometry y="156" width="140" height="26" as="geometry" />
        </mxCell>
        <mxCell id="fNARwGOZfBez5ngFtpuY-58" value="Data Source" style="swimlane;fontStyle=0;childLayout=stackLayout;horizontal=1;startSize=26;horizontalStack=0;resizeParent=1;resizeParentMax=0;resizeLast=0;collapsible=1;marginBottom=0;" vertex="1" parent="1">
          <mxGeometry x="333" y="2183" width="140" height="78" as="geometry" />
        </mxCell>
        <mxCell id="fNARwGOZfBez5ngFtpuY-59" value="PK id" style="text;strokeColor=none;fillColor=none;align=left;verticalAlign=top;spacingLeft=4;spacingRight=4;overflow=hidden;rotatable=0;points=[[0,0.5],[1,0.5]];portConstraint=eastwest;" vertex="1" parent="fNARwGOZfBez5ngFtpuY-58">
          <mxGeometry y="26" width="140" height="26" as="geometry" />
        </mxCell>
        <mxCell id="fNARwGOZfBez5ngFtpuY-60" value="from" style="text;strokeColor=none;fillColor=none;align=left;verticalAlign=top;spacingLeft=4;spacingRight=4;overflow=hidden;rotatable=0;points=[[0,0.5],[1,0.5]];portConstraint=eastwest;" vertex="1" parent="fNARwGOZfBez5ngFtpuY-58">
          <mxGeometry y="52" width="140" height="26" as="geometry" />
        </mxCell>
        <mxCell id="fNARwGOZfBez5ngFtpuY-61" value="" style="endArrow=none;html=1;exitX=1;exitY=0.5;exitDx=0;exitDy=0;entryX=0;entryY=0.5;entryDx=0;entryDy=0;" edge="1" parent="1" source="fNARwGOZfBez5ngFtpuY-56" target="fNARwGOZfBez5ngFtpuY-48">
          <mxGeometry width="50" height="50" relative="1" as="geometry">
            <mxPoint x="378" y="2050" as="sourcePoint" />
            <mxPoint x="428" y="2000" as="targetPoint" />
            <Array as="points">
              <mxPoint x="238" y="2228" />
              <mxPoint x="243" y="2014" />
            </Array>
          </mxGeometry>
        </mxCell>
        <mxCell id="fNARwGOZfBez5ngFtpuY-62" value="" style="endArrow=none;html=1;exitX=1;exitY=0.5;exitDx=0;exitDy=0;entryX=0;entryY=0.5;entryDx=0;entryDy=0;" edge="1" parent="1" source="fNARwGOZfBez5ngFtpuY-57" target="fNARwGOZfBez5ngFtpuY-59">
          <mxGeometry width="50" height="50" relative="1" as="geometry">
            <mxPoint x="197" y="2315" as="sourcePoint" />
            <mxPoint x="332" y="2197" as="targetPoint" />
            <Array as="points">
              <mxPoint x="269" y="2254" />
              <mxPoint x="269" y="2222" />
            </Array>
          </mxGeometry>
        </mxCell>
        <mxCell id="fNARwGOZfBez5ngFtpuY-63" value="" style="endArrow=none;html=1;exitX=1;exitY=0.5;exitDx=0;exitDy=0;" edge="1" parent="1" source="fNARwGOZfBez5ngFtpuY-44">
          <mxGeometry width="50" height="50" relative="1" as="geometry">
            <mxPoint x="378" y="2050" as="sourcePoint" />
            <mxPoint x="367" y="2014" as="targetPoint" />
          </mxGeometry>
        </mxCell>
        <mxCell id="fNARwGOZfBez5ngFtpuY-64" value="&lt;div style=&quot;box-sizing: border-box ; width: 100% ; background: #e4e4e4 ; padding: 2px&quot;&gt;location&lt;br&gt;&lt;/div&gt;&lt;table style=&quot;width: 100% ; font-size: 1em&quot; cellspacing=&quot;0&quot; cellpadding=&quot;2&quot;&gt;&lt;tbody&gt;&lt;tr&gt;&lt;td&gt;PK&lt;/td&gt;&lt;td&gt;id&lt;/td&gt;&lt;/tr&gt;&lt;tr&gt;&lt;td&gt;&lt;br&gt;&lt;/td&gt;&lt;td&gt;state&lt;/td&gt;&lt;/tr&gt;&lt;tr&gt;&lt;td&gt;&lt;br&gt;&lt;/td&gt;&lt;td&gt;country&lt;/td&gt;&lt;/tr&gt;&lt;tr&gt;&lt;td&gt;&lt;br&gt;&lt;/td&gt;&lt;td&gt;coordinate id&lt;br&gt;&lt;/td&gt;&lt;/tr&gt;&lt;tr&gt;&lt;td&gt;&lt;br&gt;&lt;/td&gt;&lt;td&gt;population&lt;br&gt;&lt;/td&gt;&lt;/tr&gt;&lt;/tbody&gt;&lt;/table&gt;" style="verticalAlign=top;align=left;overflow=fill;html=1;" vertex="1" parent="1">
          <mxGeometry x="402" y="1532" width="143" height="117" as="geometry" />
        </mxCell>
        <mxCell id="fNARwGOZfBez5ngFtpuY-65" value="&lt;div style=&quot;box-sizing: border-box ; width: 100% ; background: #e4e4e4 ; padding: 2px&quot;&gt;Data Source&lt;br&gt;&lt;/div&gt;&lt;table style=&quot;width: 100% ; font-size: 1em&quot; cellspacing=&quot;0&quot; cellpadding=&quot;2&quot;&gt;&lt;tbody&gt;&lt;tr&gt;&lt;td&gt;PK&lt;/td&gt;&lt;td&gt;id&lt;/td&gt;&lt;/tr&gt;&lt;tr&gt;&lt;td&gt;&lt;br&gt;&lt;/td&gt;&lt;td&gt;from&lt;/td&gt;&lt;/tr&gt;&lt;/tbody&gt;&lt;/table&gt;" style="verticalAlign=top;align=left;overflow=fill;html=1;" vertex="1" parent="1">
          <mxGeometry x="404" y="1677" width="143" height="63" as="geometry" />
        </mxCell>
        <mxCell id="fNARwGOZfBez5ngFtpuY-66" value="&lt;div style=&quot;box-sizing: border-box ; width: 100% ; background: #e4e4e4 ; padding: 2px&quot;&gt;Coronavirus Data&lt;/div&gt;&lt;table style=&quot;width: 100% ; font-size: 1em&quot; cellspacing=&quot;0&quot; cellpadding=&quot;2&quot;&gt;&lt;tbody&gt;&lt;tr&gt;&lt;td&gt;FK&lt;/td&gt;&lt;td&gt;location code&lt;br&gt;&lt;/td&gt;&lt;/tr&gt;&lt;tr&gt;&lt;td&gt;FK&lt;br&gt;&lt;/td&gt;&lt;td&gt;from&lt;/td&gt;&lt;/tr&gt;&lt;tr&gt;&lt;td&gt;&lt;br&gt;&lt;/td&gt;&lt;td&gt;confirmed&lt;/td&gt;&lt;/tr&gt;&lt;tr&gt;&lt;td&gt;&lt;br&gt;&lt;/td&gt;&lt;td&gt;deaths&lt;br&gt;&lt;/td&gt;&lt;/tr&gt;&lt;tr&gt;&lt;td&gt;&lt;br&gt;&lt;/td&gt;&lt;td&gt;population&lt;br&gt;&lt;/td&gt;&lt;/tr&gt;&lt;/tbody&gt;&lt;/table&gt;" style="verticalAlign=top;align=left;overflow=fill;html=1;" vertex="1" parent="1">
          <mxGeometry x="89" y="1543" width="143" height="117" as="geometry" />
        </mxCell>
        <mxCell id="fNARwGOZfBez5ngFtpuY-67" value="&lt;div style=&quot;box-sizing: border-box ; width: 100% ; background: #e4e4e4 ; padding: 2px&quot;&gt;Coordinate&lt;br&gt;&lt;/div&gt;&lt;table style=&quot;width: 100% ; font-size: 1em&quot; cellspacing=&quot;0&quot; cellpadding=&quot;2&quot;&gt;&lt;tbody&gt;&lt;tr&gt;&lt;td&gt;&lt;br&gt;&lt;/td&gt;&lt;td&gt;latitude&lt;/td&gt;&lt;/tr&gt;&lt;tr&gt;&lt;td&gt;&lt;br&gt;&lt;/td&gt;&lt;td&gt;longitude&lt;br&gt;&lt;/td&gt;&lt;/tr&gt;&lt;tr&gt;&lt;td&gt;PK&lt;br&gt;&lt;/td&gt;&lt;td&gt;&amp;nbsp;id&lt;br&gt;&lt;/td&gt;&lt;/tr&gt;&lt;tr&gt;&lt;td&gt;&lt;br&gt;&lt;/td&gt;&lt;td&gt;&lt;br&gt;&lt;/td&gt;&lt;/tr&gt;&lt;/tbody&gt;&lt;/table&gt;" style="verticalAlign=top;align=left;overflow=fill;html=1;" vertex="1" parent="1">
          <mxGeometry x="402" y="1773" width="143" height="80" as="geometry" />
        </mxCell>
        <mxCell id="fNARwGOZfBez5ngFtpuY-68" value="Data owners" style="shape=umlActor;verticalLabelPosition=bottom;verticalAlign=top;html=1;outlineConnect=0;" vertex="1" parent="1">
          <mxGeometry x="40" y="370" width="30" height="60" as="geometry" />
        </mxCell>
        <mxCell id="fNARwGOZfBez5ngFtpuY-69" value="&lt;span lang=&quot;EN-US&quot;&gt;Log into personal account&lt;/span&gt;" style="ellipse;whiteSpace=wrap;html=1;" vertex="1" parent="1">
          <mxGeometry x="213" y="80" width="120" height="80" as="geometry" />
        </mxCell>
        <mxCell id="fNARwGOZfBez5ngFtpuY-70" value="connect to data source" style="ellipse;whiteSpace=wrap;html=1;" vertex="1" parent="1">
          <mxGeometry x="275" y="185" width="120" height="80" as="geometry" />
        </mxCell>
        <mxCell id="fNARwGOZfBez5ngFtpuY-71" value="" style="endArrow=none;html=1;rounded=0;entryX=0.008;entryY=0.663;entryDx=0;entryDy=0;entryPerimeter=0;" edge="1" parent="1" target="fNARwGOZfBez5ngFtpuY-69">
          <mxGeometry width="50" height="50" relative="1" as="geometry">
            <mxPoint x="80" y="400" as="sourcePoint" />
            <mxPoint x="382" y="402" as="targetPoint" />
          </mxGeometry>
        </mxCell>
        <mxCell id="fNARwGOZfBez5ngFtpuY-72" value="" style="endArrow=none;html=1;rounded=0;entryX=0.042;entryY=0.325;entryDx=0;entryDy=0;entryPerimeter=0;" edge="1" parent="1" target="fNARwGOZfBez5ngFtpuY-70">
          <mxGeometry width="50" height="50" relative="1" as="geometry">
            <mxPoint x="80" y="400" as="sourcePoint" />
            <mxPoint x="310" y="280" as="targetPoint" />
          </mxGeometry>
        </mxCell>
        <mxCell id="fNARwGOZfBez5ngFtpuY-73" value="manage access to data source " style="ellipse;whiteSpace=wrap;html=1;" vertex="1" parent="1">
          <mxGeometry x="337.5" y="309" width="120" height="80" as="geometry" />
        </mxCell>
        <mxCell id="fNARwGOZfBez5ngFtpuY-74" value="" style="endArrow=none;html=1;rounded=0;entryX=0;entryY=0.413;entryDx=0;entryDy=0;entryPerimeter=0;" edge="1" parent="1" target="fNARwGOZfBez5ngFtpuY-73">
          <mxGeometry width="50" height="50" relative="1" as="geometry">
            <mxPoint x="80" y="400" as="sourcePoint" />
            <mxPoint x="194" y="311" as="targetPoint" />
          </mxGeometry>
        </mxCell>
        <mxCell id="fNARwGOZfBez5ngFtpuY-75" value="build global data policy" style="ellipse;whiteSpace=wrap;html=1;" vertex="1" parent="1">
          <mxGeometry x="225" y="520" width="120" height="80" as="geometry" />
        </mxCell>
        <mxCell id="fNARwGOZfBez5ngFtpuY-76" value="" style="endArrow=none;html=1;rounded=0;entryX=-0.008;entryY=0.613;entryDx=0;entryDy=0;entryPerimeter=0;" edge="1" parent="1" target="fNARwGOZfBez5ngFtpuY-75">
          <mxGeometry width="50" height="50" relative="1" as="geometry">
            <mxPoint x="80" y="400" as="sourcePoint" />
            <mxPoint x="520" y="420" as="targetPoint" />
          </mxGeometry>
        </mxCell>
        <mxCell id="fNARwGOZfBez5ngFtpuY-77" value="Create projects" style="ellipse;whiteSpace=wrap;html=1;" vertex="1" parent="1">
          <mxGeometry x="225" y="415" width="105" height="90" as="geometry" />
        </mxCell>
        <mxCell id="fNARwGOZfBez5ngFtpuY-78" value="" style="endArrow=none;html=1;rounded=0;" edge="1" parent="1" target="fNARwGOZfBez5ngFtpuY-77">
          <mxGeometry width="50" height="50" relative="1" as="geometry">
            <mxPoint x="80" y="400" as="sourcePoint" />
            <mxPoint x="200" y="300" as="targetPoint" />
          </mxGeometry>
        </mxCell>
        <mxCell id="fNARwGOZfBez5ngFtpuY-80" value="" style="endArrow=classic;html=1;rounded=0;exitX=0.686;exitY=0.011;exitDx=0;exitDy=0;exitPerimeter=0;" edge="1" parent="1" source="fNARwGOZfBez5ngFtpuY-77" target="fNARwGOZfBez5ngFtpuY-70">
          <mxGeometry width="50" height="50" relative="1" as="geometry">
            <mxPoint x="280" y="430" as="sourcePoint" />
            <mxPoint x="330" y="380" as="targetPoint" />
          </mxGeometry>
        </mxCell>
        <mxCell id="fNARwGOZfBez5ngFtpuY-86" value="&amp;lt;includes&amp;gt;" style="text;html=1;strokeColor=none;fillColor=none;align=center;verticalAlign=middle;whiteSpace=wrap;rounded=0;rotation=-85;" vertex="1" parent="1">
          <mxGeometry x="275" y="303" width="60" height="30" as="geometry" />
        </mxCell>
        <mxCell id="fNARwGOZfBez5ngFtpuY-89" value="Search policies" style="ellipse;whiteSpace=wrap;html=1;" vertex="1" parent="1">
          <mxGeometry x="217.5" y="620" width="120" height="80" as="geometry" />
        </mxCell>
        <mxCell id="fNARwGOZfBez5ngFtpuY-91" value="" style="endArrow=none;html=1;rounded=0;entryX=0.021;entryY=0.25;entryDx=0;entryDy=0;entryPerimeter=0;" edge="1" parent="1" target="fNARwGOZfBez5ngFtpuY-89">
          <mxGeometry width="50" height="50" relative="1" as="geometry">
            <mxPoint x="80" y="400" as="sourcePoint" />
            <mxPoint x="110" y="500" as="targetPoint" />
          </mxGeometry>
        </mxCell>
        <mxCell id="fNARwGOZfBez5ngFtpuY-92" value="Query and review data" style="ellipse;whiteSpace=wrap;html=1;" vertex="1" parent="1">
          <mxGeometry x="217.5" y="710" width="120" height="80" as="geometry" />
        </mxCell>
        <mxCell id="fNARwGOZfBez5ngFtpuY-93" value="Manage users" style="ellipse;whiteSpace=wrap;html=1;" vertex="1" parent="1">
          <mxGeometry x="225" y="810" width="120" height="80" as="geometry" />
        </mxCell>
        <mxCell id="fNARwGOZfBez5ngFtpuY-94" value="Admins" style="shape=umlActor;verticalLabelPosition=bottom;verticalAlign=top;html=1;outlineConnect=0;" vertex="1" parent="1">
          <mxGeometry x="40" y="590" width="30" height="60" as="geometry" />
        </mxCell>
        <mxCell id="fNARwGOZfBez5ngFtpuY-95" value="" style="endArrow=none;html=1;rounded=0;entryX=0.025;entryY=0.725;entryDx=0;entryDy=0;entryPerimeter=0;exitX=1;exitY=0.3333333333333333;exitDx=0;exitDy=0;exitPerimeter=0;" edge="1" parent="1" source="fNARwGOZfBez5ngFtpuY-94" target="fNARwGOZfBez5ngFtpuY-69">
          <mxGeometry width="50" height="50" relative="1" as="geometry">
            <mxPoint x="70" y="570" as="sourcePoint" />
            <mxPoint x="120" y="520" as="targetPoint" />
          </mxGeometry>
        </mxCell>
        <mxCell id="fNARwGOZfBez5ngFtpuY-96" value="" style="endArrow=none;html=1;rounded=0;exitX=1;exitY=0.3333333333333333;exitDx=0;exitDy=0;exitPerimeter=0;entryX=0.033;entryY=0.288;entryDx=0;entryDy=0;entryPerimeter=0;" edge="1" parent="1" source="fNARwGOZfBez5ngFtpuY-94" target="fNARwGOZfBez5ngFtpuY-93">
          <mxGeometry width="50" height="50" relative="1" as="geometry">
            <mxPoint x="70" y="690" as="sourcePoint" />
            <mxPoint x="120" y="640" as="targetPoint" />
          </mxGeometry>
        </mxCell>
        <mxCell id="fNARwGOZfBez5ngFtpuY-100" value="" style="endArrow=none;html=1;rounded=0;entryX=-0.004;entryY=0.4;entryDx=0;entryDy=0;entryPerimeter=0;" edge="1" parent="1" target="fNARwGOZfBez5ngFtpuY-92">
          <mxGeometry width="50" height="50" relative="1" as="geometry">
            <mxPoint x="80" y="400" as="sourcePoint" />
            <mxPoint x="130" y="400" as="targetPoint" />
          </mxGeometry>
        </mxCell>
        <mxCell id="fNARwGOZfBez5ngFtpuY-81" value="" style="endArrow=classic;html=1;rounded=0;exitX=1;exitY=0.5;exitDx=0;exitDy=0;" edge="1" parent="1" source="fNARwGOZfBez5ngFtpuY-77" target="fNARwGOZfBez5ngFtpuY-73">
          <mxGeometry width="50" height="50" relative="1" as="geometry">
            <mxPoint x="395.99993953479014" y="507.9965412525884" as="sourcePoint" />
            <mxPoint x="431.99993953479014" y="445.9965412525884" as="targetPoint" />
          </mxGeometry>
        </mxCell>
        <mxCell id="fNARwGOZfBez5ngFtpuY-87" value="&amp;lt;includes&amp;gt;" style="text;html=1;strokeColor=none;fillColor=none;align=center;verticalAlign=middle;whiteSpace=wrap;rounded=0;rotation=-60;" vertex="1" parent="1">
          <mxGeometry x="315.99993953479014" y="405.9965412525884" width="60" height="30" as="geometry" />
        </mxCell>
        <mxCell id="wUKeml59tgR4kstWyBrH-4" value="Auditors" style="shape=umlActor;verticalLabelPosition=bottom;verticalAlign=top;html=1;outlineConnect=0;" vertex="1" parent="1">
          <mxGeometry x="36" y="830" width="30" height="60" as="geometry" />
        </mxCell>
        <mxCell id="wUKeml59tgR4kstWyBrH-10" value="Review audit logs" style="ellipse;whiteSpace=wrap;html=1;" vertex="1" parent="1">
          <mxGeometry x="225" y="910" width="120" height="80" as="geometry" />
        </mxCell>
        <mxCell id="wUKeml59tgR4kstWyBrH-11" value="" style="endArrow=none;html=1;rounded=0;fontColor=#FF0000;strokeColor=#1A1A1A;exitX=1;exitY=0.3333333333333333;exitDx=0;exitDy=0;exitPerimeter=0;entryX=0;entryY=0.5;entryDx=0;entryDy=0;" edge="1" parent="1" source="wUKeml59tgR4kstWyBrH-4" target="wUKeml59tgR4kstWyBrH-10">
          <mxGeometry width="50" height="50" relative="1" as="geometry">
            <mxPoint x="67" y="914" as="sourcePoint" />
            <mxPoint x="117" y="864" as="targetPoint" />
          </mxGeometry>
        </mxCell>
        <mxCell id="wUKeml59tgR4kstWyBrH-12" value="" style="endArrow=none;html=1;rounded=0;fontColor=#FF0000;strokeColor=#1A1A1A;" edge="1" parent="1">
          <mxGeometry width="50" height="50" relative="1" as="geometry">
            <mxPoint x="79" y="398" as="sourcePoint" />
            <mxPoint x="226" y="947" as="targetPoint" />
          </mxGeometry>
        </mxCell>
      </root>
    </mxGraphModel>
  </diagram>
  <diagram name="Copy of Page-1" id="ecYS8LQjBznt1AWfz2F0">
    <mxGraphModel dx="1977" dy="1717" grid="0" gridSize="10" guides="1" tooltips="1" connect="1" arrows="1" fold="1" page="0" pageScale="1" pageWidth="827" pageHeight="1169" math="0" shadow="0">
      <root>
        <mxCell id="J0OiQJHWBUIPdCi0FXls-0" />
        <mxCell id="J0OiQJHWBUIPdCi0FXls-1" parent="J0OiQJHWBUIPdCi0FXls-0" />
        <mxCell id="J0OiQJHWBUIPdCi0FXls-2" value="Citizen" style="shape=umlActor;verticalLabelPosition=bottom;verticalAlign=top;html=1;outlineConnect=0;" vertex="1" parent="J0OiQJHWBUIPdCi0FXls-1">
          <mxGeometry x="63" y="-184" width="30" height="60" as="geometry" />
        </mxCell>
        <mxCell id="J0OiQJHWBUIPdCi0FXls-3" value="jhu" style="ellipse;whiteSpace=wrap;html=1;" vertex="1" parent="J0OiQJHWBUIPdCi0FXls-1">
          <mxGeometry x="543" y="-201" width="120" height="50" as="geometry" />
        </mxCell>
        <mxCell id="J0OiQJHWBUIPdCi0FXls-4" value="" style="endArrow=classic;html=1;exitX=0;exitY=0.5;exitDx=0;exitDy=0;" edge="1" parent="J0OiQJHWBUIPdCi0FXls-1" source="J0OiQJHWBUIPdCi0FXls-3">
          <mxGeometry width="50" height="50" relative="1" as="geometry">
            <mxPoint x="382" y="-178.5" as="sourcePoint" />
            <mxPoint x="417" y="-188" as="targetPoint" />
          </mxGeometry>
        </mxCell>
        <mxCell id="J0OiQJHWBUIPdCi0FXls-5" value="csbs" style="ellipse;whiteSpace=wrap;html=1;" vertex="1" parent="J0OiQJHWBUIPdCi0FXls-1">
          <mxGeometry x="543" y="-276" width="120" height="50" as="geometry" />
        </mxCell>
        <mxCell id="J0OiQJHWBUIPdCi0FXls-6" value="nyt" style="ellipse;whiteSpace=wrap;html=1;" vertex="1" parent="J0OiQJHWBUIPdCi0FXls-1">
          <mxGeometry x="543" y="-126" width="120" height="50" as="geometry" />
        </mxCell>
        <mxCell id="J0OiQJHWBUIPdCi0FXls-7" value="" style="endArrow=classic;html=1;exitX=0;exitY=0.5;exitDx=0;exitDy=0;" edge="1" parent="J0OiQJHWBUIPdCi0FXls-1" source="J0OiQJHWBUIPdCi0FXls-5">
          <mxGeometry width="50" height="50" relative="1" as="geometry">
            <mxPoint x="600" y="-253" as="sourcePoint" />
            <mxPoint x="422" y="-200" as="targetPoint" />
          </mxGeometry>
        </mxCell>
        <mxCell id="J0OiQJHWBUIPdCi0FXls-8" value="" style="endArrow=classic;html=1;exitX=0.025;exitY=0.3;exitDx=0;exitDy=0;exitPerimeter=0;" edge="1" parent="J0OiQJHWBUIPdCi0FXls-1" source="J0OiQJHWBUIPdCi0FXls-6">
          <mxGeometry width="50" height="50" relative="1" as="geometry">
            <mxPoint x="612" y="-130" as="sourcePoint" />
            <mxPoint x="418" y="-166" as="targetPoint" />
          </mxGeometry>
        </mxCell>
        <mxCell id="J0OiQJHWBUIPdCi0FXls-9" value="" style="rounded=0;whiteSpace=wrap;html=1;" vertex="1" parent="J0OiQJHWBUIPdCi0FXls-1">
          <mxGeometry x="183" y="-316" width="234" height="312" as="geometry" />
        </mxCell>
        <mxCell id="J0OiQJHWBUIPdCi0FXls-10" value="View overall Coronavirus data" style="ellipse;whiteSpace=wrap;html=1;" vertex="1" parent="J0OiQJHWBUIPdCi0FXls-1">
          <mxGeometry x="225" y="-243" width="120" height="50" as="geometry" />
        </mxCell>
        <mxCell id="J0OiQJHWBUIPdCi0FXls-11" value="&lt;div&gt;View Coronavirus data&lt;/div&gt;&lt;div&gt;for specific location&lt;br&gt;&lt;/div&gt;" style="ellipse;whiteSpace=wrap;html=1;" vertex="1" parent="J0OiQJHWBUIPdCi0FXls-1">
          <mxGeometry x="225" y="-166" width="120" height="50" as="geometry" />
        </mxCell>
        <mxCell id="J0OiQJHWBUIPdCi0FXls-12" value="&lt;div&gt;View everyday&#39;s Coronavirus data&lt;/div&gt;&lt;div&gt;for specific location&lt;br&gt;&lt;/div&gt;" style="ellipse;whiteSpace=wrap;html=1;" vertex="1" parent="J0OiQJHWBUIPdCi0FXls-1">
          <mxGeometry x="227" y="-97" width="130" height="66" as="geometry" />
        </mxCell>
        <mxCell id="J0OiQJHWBUIPdCi0FXls-13" value="" style="endArrow=classic;html=1;" edge="1" parent="J0OiQJHWBUIPdCi0FXls-1">
          <mxGeometry width="50" height="50" relative="1" as="geometry">
            <mxPoint x="97" y="-165" as="sourcePoint" />
            <mxPoint x="222" y="-215" as="targetPoint" />
          </mxGeometry>
        </mxCell>
        <mxCell id="J0OiQJHWBUIPdCi0FXls-14" value="" style="endArrow=classic;html=1;entryX=0;entryY=0.5;entryDx=0;entryDy=0;" edge="1" parent="J0OiQJHWBUIPdCi0FXls-1" target="J0OiQJHWBUIPdCi0FXls-11">
          <mxGeometry width="50" height="50" relative="1" as="geometry">
            <mxPoint x="99" y="-150" as="sourcePoint" />
            <mxPoint x="149" y="-142" as="targetPoint" />
          </mxGeometry>
        </mxCell>
        <mxCell id="J0OiQJHWBUIPdCi0FXls-15" value="" style="endArrow=classic;html=1;" edge="1" parent="J0OiQJHWBUIPdCi0FXls-1">
          <mxGeometry width="50" height="50" relative="1" as="geometry">
            <mxPoint x="102" y="-140" as="sourcePoint" />
            <mxPoint x="224" y="-74" as="targetPoint" />
          </mxGeometry>
        </mxCell>
        <mxCell id="J0OiQJHWBUIPdCi0FXls-16" value="Web Interface" style="text;html=1;strokeColor=none;fillColor=none;align=center;verticalAlign=middle;whiteSpace=wrap;rounded=0;" vertex="1" parent="J0OiQJHWBUIPdCi0FXls-1">
          <mxGeometry x="246" y="-303" width="103" height="20" as="geometry" />
        </mxCell>
        <mxCell id="J0OiQJHWBUIPdCi0FXls-17" value="Person" style="swimlane;fontStyle=0;childLayout=stackLayout;horizontal=1;startSize=26;horizontalStack=0;resizeParent=1;resizeParentMax=0;resizeLast=0;collapsible=1;marginBottom=0;" vertex="1" parent="J0OiQJHWBUIPdCi0FXls-1">
          <mxGeometry x="55" y="1179" width="140" height="52" as="geometry" />
        </mxCell>
        <mxCell id="J0OiQJHWBUIPdCi0FXls-18" value="Location" style="swimlane;fontStyle=0;childLayout=stackLayout;horizontal=1;startSize=26;horizontalStack=0;resizeParent=1;resizeParentMax=0;resizeLast=0;collapsible=1;marginBottom=0;" vertex="1" parent="J0OiQJHWBUIPdCi0FXls-1">
          <mxGeometry x="376" y="1179" width="140" height="78" as="geometry" />
        </mxCell>
        <mxCell id="J0OiQJHWBUIPdCi0FXls-19" value="country" style="text;strokeColor=none;fillColor=none;align=left;verticalAlign=top;spacingLeft=4;spacingRight=4;overflow=hidden;rotatable=0;points=[[0,0.5],[1,0.5]];portConstraint=eastwest;" vertex="1" parent="J0OiQJHWBUIPdCi0FXls-18">
          <mxGeometry y="26" width="140" height="26" as="geometry" />
        </mxCell>
        <mxCell id="J0OiQJHWBUIPdCi0FXls-20" value="state" style="text;strokeColor=none;fillColor=none;align=left;verticalAlign=top;spacingLeft=4;spacingRight=4;overflow=hidden;rotatable=0;points=[[0,0.5],[1,0.5]];portConstraint=eastwest;" vertex="1" parent="J0OiQJHWBUIPdCi0FXls-18">
          <mxGeometry y="52" width="140" height="26" as="geometry" />
        </mxCell>
        <mxCell id="J0OiQJHWBUIPdCi0FXls-21" value="" style="endArrow=none;html=1;exitX=1;exitY=0.5;exitDx=0;exitDy=0;" edge="1" parent="J0OiQJHWBUIPdCi0FXls-1" source="J0OiQJHWBUIPdCi0FXls-17">
          <mxGeometry width="50" height="50" relative="1" as="geometry">
            <mxPoint x="238" y="1238" as="sourcePoint" />
            <mxPoint x="375" y="1205" as="targetPoint" />
          </mxGeometry>
        </mxCell>
        <mxCell id="J0OiQJHWBUIPdCi0FXls-22" value="Coronavirus Data" style="swimlane;fontStyle=0;childLayout=stackLayout;horizontal=1;startSize=26;horizontalStack=0;resizeParent=1;resizeParentMax=0;resizeLast=0;collapsible=1;marginBottom=0;" vertex="1" parent="J0OiQJHWBUIPdCi0FXls-1">
          <mxGeometry x="55" y="1341" width="140" height="104" as="geometry" />
        </mxCell>
        <mxCell id="J0OiQJHWBUIPdCi0FXls-23" value="cofirmed" style="text;strokeColor=none;fillColor=none;align=left;verticalAlign=top;spacingLeft=4;spacingRight=4;overflow=hidden;rotatable=0;points=[[0,0.5],[1,0.5]];portConstraint=eastwest;" vertex="1" parent="J0OiQJHWBUIPdCi0FXls-22">
          <mxGeometry y="26" width="140" height="26" as="geometry" />
        </mxCell>
        <mxCell id="J0OiQJHWBUIPdCi0FXls-24" value="Death" style="text;strokeColor=none;fillColor=none;align=left;verticalAlign=top;spacingLeft=4;spacingRight=4;overflow=hidden;rotatable=0;points=[[0,0.5],[1,0.5]];portConstraint=eastwest;" vertex="1" parent="J0OiQJHWBUIPdCi0FXls-22">
          <mxGeometry y="52" width="140" height="26" as="geometry" />
        </mxCell>
        <mxCell id="J0OiQJHWBUIPdCi0FXls-25" value="Recover" style="text;strokeColor=none;fillColor=none;align=left;verticalAlign=top;spacingLeft=4;spacingRight=4;overflow=hidden;rotatable=0;points=[[0,0.5],[1,0.5]];portConstraint=eastwest;" vertex="1" parent="J0OiQJHWBUIPdCi0FXls-22">
          <mxGeometry y="78" width="140" height="26" as="geometry" />
        </mxCell>
        <mxCell id="J0OiQJHWBUIPdCi0FXls-26" value="Data Source" style="swimlane;fontStyle=0;childLayout=stackLayout;horizontal=1;startSize=26;horizontalStack=0;resizeParent=1;resizeParentMax=0;resizeLast=0;collapsible=1;marginBottom=0;" vertex="1" parent="J0OiQJHWBUIPdCi0FXls-1">
          <mxGeometry x="314" y="1360" width="140" height="104" as="geometry" />
        </mxCell>
        <mxCell id="J0OiQJHWBUIPdCi0FXls-27" value="jhu" style="text;strokeColor=none;fillColor=none;align=left;verticalAlign=top;spacingLeft=4;spacingRight=4;overflow=hidden;rotatable=0;points=[[0,0.5],[1,0.5]];portConstraint=eastwest;" vertex="1" parent="J0OiQJHWBUIPdCi0FXls-26">
          <mxGeometry y="26" width="140" height="26" as="geometry" />
        </mxCell>
        <mxCell id="J0OiQJHWBUIPdCi0FXls-28" value="csbs" style="text;strokeColor=none;fillColor=none;align=left;verticalAlign=top;spacingLeft=4;spacingRight=4;overflow=hidden;rotatable=0;points=[[0,0.5],[1,0.5]];portConstraint=eastwest;" vertex="1" parent="J0OiQJHWBUIPdCi0FXls-26">
          <mxGeometry y="52" width="140" height="26" as="geometry" />
        </mxCell>
        <mxCell id="J0OiQJHWBUIPdCi0FXls-29" value="nyt" style="text;strokeColor=none;fillColor=none;align=left;verticalAlign=top;spacingLeft=4;spacingRight=4;overflow=hidden;rotatable=0;points=[[0,0.5],[1,0.5]];portConstraint=eastwest;" vertex="1" parent="J0OiQJHWBUIPdCi0FXls-26">
          <mxGeometry y="78" width="140" height="26" as="geometry" />
        </mxCell>
        <mxCell id="J0OiQJHWBUIPdCi0FXls-30" value="" style="endArrow=none;html=1;entryX=0.5;entryY=1;entryDx=0;entryDy=0;" edge="1" parent="J0OiQJHWBUIPdCi0FXls-1" source="J0OiQJHWBUIPdCi0FXls-22" target="J0OiQJHWBUIPdCi0FXls-17">
          <mxGeometry width="50" height="50" relative="1" as="geometry">
            <mxPoint x="385" y="1525" as="sourcePoint" />
            <mxPoint x="435" y="1475" as="targetPoint" />
          </mxGeometry>
        </mxCell>
        <mxCell id="J0OiQJHWBUIPdCi0FXls-31" value="lives in" style="text;html=1;strokeColor=none;fillColor=none;align=center;verticalAlign=middle;whiteSpace=wrap;rounded=0;" vertex="1" parent="J0OiQJHWBUIPdCi0FXls-1">
          <mxGeometry x="265" y="1182" width="40" height="20" as="geometry" />
        </mxCell>
        <mxCell id="J0OiQJHWBUIPdCi0FXls-32" value="request" style="text;html=1;strokeColor=none;fillColor=none;align=center;verticalAlign=middle;whiteSpace=wrap;rounded=0;" vertex="1" parent="J0OiQJHWBUIPdCi0FXls-1">
          <mxGeometry x="133" y="1283" width="40" height="20" as="geometry" />
        </mxCell>
        <mxCell id="J0OiQJHWBUIPdCi0FXls-33" value="" style="endArrow=none;html=1;entryX=1;entryY=0.5;entryDx=0;entryDy=0;" edge="1" parent="J0OiQJHWBUIPdCi0FXls-1" target="J0OiQJHWBUIPdCi0FXls-22">
          <mxGeometry width="50" height="50" relative="1" as="geometry">
            <mxPoint x="312" y="1392" as="sourcePoint" />
            <mxPoint x="135" y="1241" as="targetPoint" />
          </mxGeometry>
        </mxCell>
        <mxCell id="J0OiQJHWBUIPdCi0FXls-34" value="request" style="text;html=1;strokeColor=none;fillColor=none;align=center;verticalAlign=middle;whiteSpace=wrap;rounded=0;" vertex="1" parent="J0OiQJHWBUIPdCi0FXls-1">
          <mxGeometry x="235" y="1365" width="40" height="20" as="geometry" />
        </mxCell>
        <mxCell id="J0OiQJHWBUIPdCi0FXls-35" value="1" style="text;html=1;strokeColor=none;fillColor=none;align=center;verticalAlign=middle;whiteSpace=wrap;rounded=0;" vertex="1" parent="J0OiQJHWBUIPdCi0FXls-1">
          <mxGeometry x="115" y="1231" width="40" height="20" as="geometry" />
        </mxCell>
        <mxCell id="J0OiQJHWBUIPdCi0FXls-36" value="&amp;gt;1" style="text;html=1;strokeColor=none;fillColor=none;align=center;verticalAlign=middle;whiteSpace=wrap;rounded=0;" vertex="1" parent="J0OiQJHWBUIPdCi0FXls-1">
          <mxGeometry x="119" y="1319" width="40" height="20" as="geometry" />
        </mxCell>
        <mxCell id="J0OiQJHWBUIPdCi0FXls-37" value="1" style="text;html=1;strokeColor=none;fillColor=none;align=center;verticalAlign=middle;whiteSpace=wrap;rounded=0;" vertex="1" parent="J0OiQJHWBUIPdCi0FXls-1">
          <mxGeometry x="333" y="1184" width="40" height="20" as="geometry" />
        </mxCell>
        <mxCell id="J0OiQJHWBUIPdCi0FXls-38" value="1" style="text;html=1;strokeColor=none;fillColor=none;align=center;verticalAlign=middle;whiteSpace=wrap;rounded=0;" vertex="1" parent="J0OiQJHWBUIPdCi0FXls-1">
          <mxGeometry x="197" y="1184" width="40" height="20" as="geometry" />
        </mxCell>
        <mxCell id="J0OiQJHWBUIPdCi0FXls-39" value="1" style="text;html=1;strokeColor=none;fillColor=none;align=center;verticalAlign=middle;whiteSpace=wrap;rounded=0;" vertex="1" parent="J0OiQJHWBUIPdCi0FXls-1">
          <mxGeometry x="185" y="1372" width="40" height="20" as="geometry" />
        </mxCell>
        <mxCell id="J0OiQJHWBUIPdCi0FXls-40" value="&amp;gt;1" style="text;html=1;strokeColor=none;fillColor=none;align=center;verticalAlign=middle;whiteSpace=wrap;rounded=0;" vertex="1" parent="J0OiQJHWBUIPdCi0FXls-1">
          <mxGeometry x="282" y="1374" width="40" height="20" as="geometry" />
        </mxCell>
        <mxCell id="J0OiQJHWBUIPdCi0FXls-41" value="Person" style="swimlane;fontStyle=0;childLayout=stackLayout;horizontal=1;startSize=26;horizontalStack=0;resizeParent=1;resizeParentMax=0;resizeLast=0;collapsible=1;marginBottom=0;" vertex="1" parent="J0OiQJHWBUIPdCi0FXls-1">
          <mxGeometry x="29" y="1923" width="140" height="104" as="geometry" />
        </mxCell>
        <mxCell id="J0OiQJHWBUIPdCi0FXls-42" value="PK id" style="text;strokeColor=none;fillColor=none;align=left;verticalAlign=top;spacingLeft=4;spacingRight=4;overflow=hidden;rotatable=0;points=[[0,0.5],[1,0.5]];portConstraint=eastwest;" vertex="1" parent="J0OiQJHWBUIPdCi0FXls-41">
          <mxGeometry y="26" width="140" height="26" as="geometry" />
        </mxCell>
        <mxCell id="J0OiQJHWBUIPdCi0FXls-43" value="name" style="text;strokeColor=none;fillColor=none;align=left;verticalAlign=top;spacingLeft=4;spacingRight=4;overflow=hidden;rotatable=0;points=[[0,0.5],[1,0.5]];portConstraint=eastwest;" vertex="1" parent="J0OiQJHWBUIPdCi0FXls-41">
          <mxGeometry y="52" width="140" height="26" as="geometry" />
        </mxCell>
        <mxCell id="J0OiQJHWBUIPdCi0FXls-44" value="FK location code" style="text;strokeColor=none;fillColor=none;align=left;verticalAlign=top;spacingLeft=4;spacingRight=4;overflow=hidden;rotatable=0;points=[[0,0.5],[1,0.5]];portConstraint=eastwest;" vertex="1" parent="J0OiQJHWBUIPdCi0FXls-41">
          <mxGeometry y="78" width="140" height="26" as="geometry" />
        </mxCell>
        <mxCell id="J0OiQJHWBUIPdCi0FXls-45" value="Location" style="swimlane;fontStyle=0;childLayout=stackLayout;horizontal=1;startSize=26;horizontalStack=0;resizeParent=1;resizeParentMax=0;resizeLast=0;collapsible=1;marginBottom=0;" vertex="1" parent="J0OiQJHWBUIPdCi0FXls-1">
          <mxGeometry x="369" y="1923" width="140" height="156" as="geometry" />
        </mxCell>
        <mxCell id="J0OiQJHWBUIPdCi0FXls-46" value="state" style="text;strokeColor=none;fillColor=none;align=left;verticalAlign=top;spacingLeft=4;spacingRight=4;overflow=hidden;rotatable=0;points=[[0,0.5],[1,0.5]];portConstraint=eastwest;" vertex="1" parent="J0OiQJHWBUIPdCi0FXls-45">
          <mxGeometry y="26" width="140" height="26" as="geometry" />
        </mxCell>
        <mxCell id="J0OiQJHWBUIPdCi0FXls-47" value="country" style="text;strokeColor=none;fillColor=none;align=left;verticalAlign=top;spacingLeft=4;spacingRight=4;overflow=hidden;rotatable=0;points=[[0,0.5],[1,0.5]];portConstraint=eastwest;" vertex="1" parent="J0OiQJHWBUIPdCi0FXls-45">
          <mxGeometry y="52" width="140" height="26" as="geometry" />
        </mxCell>
        <mxCell id="J0OiQJHWBUIPdCi0FXls-48" value="PK code" style="text;strokeColor=none;fillColor=none;align=left;verticalAlign=top;spacingLeft=4;spacingRight=4;overflow=hidden;rotatable=0;points=[[0,0.5],[1,0.5]];portConstraint=eastwest;" vertex="1" parent="J0OiQJHWBUIPdCi0FXls-45">
          <mxGeometry y="78" width="140" height="26" as="geometry" />
        </mxCell>
        <mxCell id="J0OiQJHWBUIPdCi0FXls-49" value="coordinates" style="text;strokeColor=none;fillColor=none;align=left;verticalAlign=top;spacingLeft=4;spacingRight=4;overflow=hidden;rotatable=0;points=[[0,0.5],[1,0.5]];portConstraint=eastwest;" vertex="1" parent="J0OiQJHWBUIPdCi0FXls-45">
          <mxGeometry y="104" width="140" height="26" as="geometry" />
        </mxCell>
        <mxCell id="J0OiQJHWBUIPdCi0FXls-50" value="population" style="text;strokeColor=none;fillColor=none;align=left;verticalAlign=top;spacingLeft=4;spacingRight=4;overflow=hidden;rotatable=0;points=[[0,0.5],[1,0.5]];portConstraint=eastwest;" vertex="1" parent="J0OiQJHWBUIPdCi0FXls-45">
          <mxGeometry y="130" width="140" height="26" as="geometry" />
        </mxCell>
        <mxCell id="J0OiQJHWBUIPdCi0FXls-51" value="Coronavirus Data" style="swimlane;fontStyle=0;childLayout=stackLayout;horizontal=1;startSize=26;horizontalStack=0;resizeParent=1;resizeParentMax=0;resizeLast=0;collapsible=1;marginBottom=0;" vertex="1" parent="J0OiQJHWBUIPdCi0FXls-1">
          <mxGeometry x="29" y="2085" width="140" height="182" as="geometry" />
        </mxCell>
        <mxCell id="J0OiQJHWBUIPdCi0FXls-52" value="Cofirmed" style="text;strokeColor=none;fillColor=none;align=left;verticalAlign=top;spacingLeft=4;spacingRight=4;overflow=hidden;rotatable=0;points=[[0,0.5],[1,0.5]];portConstraint=eastwest;" vertex="1" parent="J0OiQJHWBUIPdCi0FXls-51">
          <mxGeometry y="26" width="140" height="26" as="geometry" />
        </mxCell>
        <mxCell id="J0OiQJHWBUIPdCi0FXls-53" value="Death" style="text;strokeColor=none;fillColor=none;align=left;verticalAlign=top;spacingLeft=4;spacingRight=4;overflow=hidden;rotatable=0;points=[[0,0.5],[1,0.5]];portConstraint=eastwest;" vertex="1" parent="J0OiQJHWBUIPdCi0FXls-51">
          <mxGeometry y="52" width="140" height="26" as="geometry" />
        </mxCell>
        <mxCell id="J0OiQJHWBUIPdCi0FXls-54" value="Recover" style="text;strokeColor=none;fillColor=none;align=left;verticalAlign=top;spacingLeft=4;spacingRight=4;overflow=hidden;rotatable=0;points=[[0,0.5],[1,0.5]];portConstraint=eastwest;" vertex="1" parent="J0OiQJHWBUIPdCi0FXls-51">
          <mxGeometry y="78" width="140" height="26" as="geometry" />
        </mxCell>
        <mxCell id="J0OiQJHWBUIPdCi0FXls-55" value="update time" style="text;strokeColor=none;fillColor=none;align=left;verticalAlign=top;spacingLeft=4;spacingRight=4;overflow=hidden;rotatable=0;points=[[0,0.5],[1,0.5]];portConstraint=eastwest;" vertex="1" parent="J0OiQJHWBUIPdCi0FXls-51">
          <mxGeometry y="104" width="140" height="26" as="geometry" />
        </mxCell>
        <mxCell id="J0OiQJHWBUIPdCi0FXls-56" value="FK location code" style="text;strokeColor=none;fillColor=none;align=left;verticalAlign=top;spacingLeft=4;spacingRight=4;overflow=hidden;rotatable=0;points=[[0,0.5],[1,0.5]];portConstraint=eastwest;" vertex="1" parent="J0OiQJHWBUIPdCi0FXls-51">
          <mxGeometry y="130" width="140" height="26" as="geometry" />
        </mxCell>
        <mxCell id="J0OiQJHWBUIPdCi0FXls-57" value="FK from" style="text;strokeColor=none;fillColor=none;align=left;verticalAlign=top;spacingLeft=4;spacingRight=4;overflow=hidden;rotatable=0;points=[[0,0.5],[1,0.5]];portConstraint=eastwest;" vertex="1" parent="J0OiQJHWBUIPdCi0FXls-51">
          <mxGeometry y="156" width="140" height="26" as="geometry" />
        </mxCell>
        <mxCell id="J0OiQJHWBUIPdCi0FXls-58" value="Data Source" style="swimlane;fontStyle=0;childLayout=stackLayout;horizontal=1;startSize=26;horizontalStack=0;resizeParent=1;resizeParentMax=0;resizeLast=0;collapsible=1;marginBottom=0;" vertex="1" parent="J0OiQJHWBUIPdCi0FXls-1">
          <mxGeometry x="333" y="2183" width="140" height="78" as="geometry" />
        </mxCell>
        <mxCell id="J0OiQJHWBUIPdCi0FXls-59" value="PK id" style="text;strokeColor=none;fillColor=none;align=left;verticalAlign=top;spacingLeft=4;spacingRight=4;overflow=hidden;rotatable=0;points=[[0,0.5],[1,0.5]];portConstraint=eastwest;" vertex="1" parent="J0OiQJHWBUIPdCi0FXls-58">
          <mxGeometry y="26" width="140" height="26" as="geometry" />
        </mxCell>
        <mxCell id="J0OiQJHWBUIPdCi0FXls-60" value="from" style="text;strokeColor=none;fillColor=none;align=left;verticalAlign=top;spacingLeft=4;spacingRight=4;overflow=hidden;rotatable=0;points=[[0,0.5],[1,0.5]];portConstraint=eastwest;" vertex="1" parent="J0OiQJHWBUIPdCi0FXls-58">
          <mxGeometry y="52" width="140" height="26" as="geometry" />
        </mxCell>
        <mxCell id="J0OiQJHWBUIPdCi0FXls-61" value="" style="endArrow=none;html=1;exitX=1;exitY=0.5;exitDx=0;exitDy=0;entryX=0;entryY=0.5;entryDx=0;entryDy=0;" edge="1" parent="J0OiQJHWBUIPdCi0FXls-1" source="J0OiQJHWBUIPdCi0FXls-56" target="J0OiQJHWBUIPdCi0FXls-48">
          <mxGeometry width="50" height="50" relative="1" as="geometry">
            <mxPoint x="378" y="2050" as="sourcePoint" />
            <mxPoint x="428" y="2000" as="targetPoint" />
            <Array as="points">
              <mxPoint x="238" y="2228" />
              <mxPoint x="243" y="2014" />
            </Array>
          </mxGeometry>
        </mxCell>
        <mxCell id="J0OiQJHWBUIPdCi0FXls-62" value="" style="endArrow=none;html=1;exitX=1;exitY=0.5;exitDx=0;exitDy=0;entryX=0;entryY=0.5;entryDx=0;entryDy=0;" edge="1" parent="J0OiQJHWBUIPdCi0FXls-1" source="J0OiQJHWBUIPdCi0FXls-57" target="J0OiQJHWBUIPdCi0FXls-59">
          <mxGeometry width="50" height="50" relative="1" as="geometry">
            <mxPoint x="197" y="2315" as="sourcePoint" />
            <mxPoint x="332" y="2197" as="targetPoint" />
            <Array as="points">
              <mxPoint x="269" y="2254" />
              <mxPoint x="269" y="2222" />
            </Array>
          </mxGeometry>
        </mxCell>
        <mxCell id="J0OiQJHWBUIPdCi0FXls-63" value="" style="endArrow=none;html=1;exitX=1;exitY=0.5;exitDx=0;exitDy=0;" edge="1" parent="J0OiQJHWBUIPdCi0FXls-1" source="J0OiQJHWBUIPdCi0FXls-44">
          <mxGeometry width="50" height="50" relative="1" as="geometry">
            <mxPoint x="378" y="2050" as="sourcePoint" />
            <mxPoint x="367" y="2014" as="targetPoint" />
          </mxGeometry>
        </mxCell>
        <mxCell id="J0OiQJHWBUIPdCi0FXls-64" value="&lt;div style=&quot;box-sizing: border-box ; width: 100% ; background: #e4e4e4 ; padding: 2px&quot;&gt;location&lt;br&gt;&lt;/div&gt;&lt;table style=&quot;width: 100% ; font-size: 1em&quot; cellspacing=&quot;0&quot; cellpadding=&quot;2&quot;&gt;&lt;tbody&gt;&lt;tr&gt;&lt;td&gt;PK&lt;/td&gt;&lt;td&gt;id&lt;/td&gt;&lt;/tr&gt;&lt;tr&gt;&lt;td&gt;&lt;br&gt;&lt;/td&gt;&lt;td&gt;state&lt;/td&gt;&lt;/tr&gt;&lt;tr&gt;&lt;td&gt;&lt;br&gt;&lt;/td&gt;&lt;td&gt;country&lt;/td&gt;&lt;/tr&gt;&lt;tr&gt;&lt;td&gt;&lt;br&gt;&lt;/td&gt;&lt;td&gt;coordinate id&lt;br&gt;&lt;/td&gt;&lt;/tr&gt;&lt;tr&gt;&lt;td&gt;&lt;br&gt;&lt;/td&gt;&lt;td&gt;population&lt;br&gt;&lt;/td&gt;&lt;/tr&gt;&lt;/tbody&gt;&lt;/table&gt;" style="verticalAlign=top;align=left;overflow=fill;html=1;" vertex="1" parent="J0OiQJHWBUIPdCi0FXls-1">
          <mxGeometry x="402" y="1532" width="143" height="117" as="geometry" />
        </mxCell>
        <mxCell id="J0OiQJHWBUIPdCi0FXls-65" value="&lt;div style=&quot;box-sizing: border-box ; width: 100% ; background: #e4e4e4 ; padding: 2px&quot;&gt;Data Source&lt;br&gt;&lt;/div&gt;&lt;table style=&quot;width: 100% ; font-size: 1em&quot; cellspacing=&quot;0&quot; cellpadding=&quot;2&quot;&gt;&lt;tbody&gt;&lt;tr&gt;&lt;td&gt;PK&lt;/td&gt;&lt;td&gt;id&lt;/td&gt;&lt;/tr&gt;&lt;tr&gt;&lt;td&gt;&lt;br&gt;&lt;/td&gt;&lt;td&gt;from&lt;/td&gt;&lt;/tr&gt;&lt;/tbody&gt;&lt;/table&gt;" style="verticalAlign=top;align=left;overflow=fill;html=1;" vertex="1" parent="J0OiQJHWBUIPdCi0FXls-1">
          <mxGeometry x="404" y="1677" width="143" height="63" as="geometry" />
        </mxCell>
        <mxCell id="J0OiQJHWBUIPdCi0FXls-66" value="&lt;div style=&quot;box-sizing: border-box ; width: 100% ; background: #e4e4e4 ; padding: 2px&quot;&gt;Coronavirus Data&lt;/div&gt;&lt;table style=&quot;width: 100% ; font-size: 1em&quot; cellspacing=&quot;0&quot; cellpadding=&quot;2&quot;&gt;&lt;tbody&gt;&lt;tr&gt;&lt;td&gt;FK&lt;/td&gt;&lt;td&gt;location code&lt;br&gt;&lt;/td&gt;&lt;/tr&gt;&lt;tr&gt;&lt;td&gt;FK&lt;br&gt;&lt;/td&gt;&lt;td&gt;from&lt;/td&gt;&lt;/tr&gt;&lt;tr&gt;&lt;td&gt;&lt;br&gt;&lt;/td&gt;&lt;td&gt;confirmed&lt;/td&gt;&lt;/tr&gt;&lt;tr&gt;&lt;td&gt;&lt;br&gt;&lt;/td&gt;&lt;td&gt;deaths&lt;br&gt;&lt;/td&gt;&lt;/tr&gt;&lt;tr&gt;&lt;td&gt;&lt;br&gt;&lt;/td&gt;&lt;td&gt;population&lt;br&gt;&lt;/td&gt;&lt;/tr&gt;&lt;/tbody&gt;&lt;/table&gt;" style="verticalAlign=top;align=left;overflow=fill;html=1;" vertex="1" parent="J0OiQJHWBUIPdCi0FXls-1">
          <mxGeometry x="89" y="1543" width="143" height="117" as="geometry" />
        </mxCell>
        <mxCell id="J0OiQJHWBUIPdCi0FXls-67" value="&lt;div style=&quot;box-sizing: border-box ; width: 100% ; background: #e4e4e4 ; padding: 2px&quot;&gt;Coordinate&lt;br&gt;&lt;/div&gt;&lt;table style=&quot;width: 100% ; font-size: 1em&quot; cellspacing=&quot;0&quot; cellpadding=&quot;2&quot;&gt;&lt;tbody&gt;&lt;tr&gt;&lt;td&gt;&lt;br&gt;&lt;/td&gt;&lt;td&gt;latitude&lt;/td&gt;&lt;/tr&gt;&lt;tr&gt;&lt;td&gt;&lt;br&gt;&lt;/td&gt;&lt;td&gt;longitude&lt;br&gt;&lt;/td&gt;&lt;/tr&gt;&lt;tr&gt;&lt;td&gt;PK&lt;br&gt;&lt;/td&gt;&lt;td&gt;&amp;nbsp;id&lt;br&gt;&lt;/td&gt;&lt;/tr&gt;&lt;tr&gt;&lt;td&gt;&lt;br&gt;&lt;/td&gt;&lt;td&gt;&lt;br&gt;&lt;/td&gt;&lt;/tr&gt;&lt;/tbody&gt;&lt;/table&gt;" style="verticalAlign=top;align=left;overflow=fill;html=1;" vertex="1" parent="J0OiQJHWBUIPdCi0FXls-1">
          <mxGeometry x="402" y="1773" width="143" height="80" as="geometry" />
        </mxCell>
        <mxCell id="J0OiQJHWBUIPdCi0FXls-68" value="Data owners" style="shape=umlActor;verticalLabelPosition=bottom;verticalAlign=top;html=1;outlineConnect=0;" vertex="1" parent="J0OiQJHWBUIPdCi0FXls-1">
          <mxGeometry x="40" y="370" width="30" height="60" as="geometry" />
        </mxCell>
        <mxCell id="J0OiQJHWBUIPdCi0FXls-69" value="&lt;span lang=&quot;EN-US&quot;&gt;Log into personal account&lt;/span&gt;" style="ellipse;whiteSpace=wrap;html=1;" vertex="1" parent="J0OiQJHWBUIPdCi0FXls-1">
          <mxGeometry x="213" y="80" width="120" height="80" as="geometry" />
        </mxCell>
        <mxCell id="J0OiQJHWBUIPdCi0FXls-70" value="connect to data source" style="ellipse;whiteSpace=wrap;html=1;" vertex="1" parent="J0OiQJHWBUIPdCi0FXls-1">
          <mxGeometry x="275" y="185" width="120" height="80" as="geometry" />
        </mxCell>
        <mxCell id="J0OiQJHWBUIPdCi0FXls-71" value="" style="endArrow=none;html=1;rounded=0;entryX=0.008;entryY=0.663;entryDx=0;entryDy=0;entryPerimeter=0;" edge="1" parent="J0OiQJHWBUIPdCi0FXls-1" target="J0OiQJHWBUIPdCi0FXls-69">
          <mxGeometry width="50" height="50" relative="1" as="geometry">
            <mxPoint x="80" y="400" as="sourcePoint" />
            <mxPoint x="382" y="402" as="targetPoint" />
          </mxGeometry>
        </mxCell>
        <mxCell id="J0OiQJHWBUIPdCi0FXls-72" value="" style="endArrow=none;html=1;rounded=0;entryX=0.042;entryY=0.325;entryDx=0;entryDy=0;entryPerimeter=0;" edge="1" parent="J0OiQJHWBUIPdCi0FXls-1" target="J0OiQJHWBUIPdCi0FXls-70">
          <mxGeometry width="50" height="50" relative="1" as="geometry">
            <mxPoint x="80" y="400" as="sourcePoint" />
            <mxPoint x="310" y="280" as="targetPoint" />
          </mxGeometry>
        </mxCell>
        <mxCell id="J0OiQJHWBUIPdCi0FXls-73" value="manage access to data source " style="ellipse;whiteSpace=wrap;html=1;" vertex="1" parent="J0OiQJHWBUIPdCi0FXls-1">
          <mxGeometry x="337.5" y="309" width="120" height="80" as="geometry" />
        </mxCell>
        <mxCell id="J0OiQJHWBUIPdCi0FXls-74" value="" style="endArrow=none;html=1;rounded=0;entryX=0;entryY=0.413;entryDx=0;entryDy=0;entryPerimeter=0;" edge="1" parent="J0OiQJHWBUIPdCi0FXls-1" target="J0OiQJHWBUIPdCi0FXls-73">
          <mxGeometry width="50" height="50" relative="1" as="geometry">
            <mxPoint x="80" y="400" as="sourcePoint" />
            <mxPoint x="194" y="311" as="targetPoint" />
          </mxGeometry>
        </mxCell>
        <mxCell id="J0OiQJHWBUIPdCi0FXls-75" value="build global data policy" style="ellipse;whiteSpace=wrap;html=1;" vertex="1" parent="J0OiQJHWBUIPdCi0FXls-1">
          <mxGeometry x="225" y="520" width="120" height="80" as="geometry" />
        </mxCell>
        <mxCell id="J0OiQJHWBUIPdCi0FXls-76" value="" style="endArrow=none;html=1;rounded=0;entryX=-0.008;entryY=0.613;entryDx=0;entryDy=0;entryPerimeter=0;" edge="1" parent="J0OiQJHWBUIPdCi0FXls-1" target="J0OiQJHWBUIPdCi0FXls-75">
          <mxGeometry width="50" height="50" relative="1" as="geometry">
            <mxPoint x="80" y="400" as="sourcePoint" />
            <mxPoint x="520" y="420" as="targetPoint" />
          </mxGeometry>
        </mxCell>
        <mxCell id="J0OiQJHWBUIPdCi0FXls-77" value="Create projects" style="ellipse;whiteSpace=wrap;html=1;" vertex="1" parent="J0OiQJHWBUIPdCi0FXls-1">
          <mxGeometry x="225" y="415" width="105" height="90" as="geometry" />
        </mxCell>
        <mxCell id="J0OiQJHWBUIPdCi0FXls-78" value="" style="endArrow=none;html=1;rounded=0;" edge="1" parent="J0OiQJHWBUIPdCi0FXls-1" target="J0OiQJHWBUIPdCi0FXls-77">
          <mxGeometry width="50" height="50" relative="1" as="geometry">
            <mxPoint x="80" y="400" as="sourcePoint" />
            <mxPoint x="200" y="300" as="targetPoint" />
          </mxGeometry>
        </mxCell>
        <mxCell id="J0OiQJHWBUIPdCi0FXls-79" value="" style="endArrow=classic;html=1;rounded=0;exitX=0.686;exitY=0.011;exitDx=0;exitDy=0;exitPerimeter=0;" edge="1" parent="J0OiQJHWBUIPdCi0FXls-1" source="J0OiQJHWBUIPdCi0FXls-77" target="J0OiQJHWBUIPdCi0FXls-70">
          <mxGeometry width="50" height="50" relative="1" as="geometry">
            <mxPoint x="280" y="430" as="sourcePoint" />
            <mxPoint x="330" y="380" as="targetPoint" />
          </mxGeometry>
        </mxCell>
        <mxCell id="J0OiQJHWBUIPdCi0FXls-80" value="&amp;lt;includes&amp;gt;" style="text;html=1;strokeColor=none;fillColor=none;align=center;verticalAlign=middle;whiteSpace=wrap;rounded=0;rotation=-85;" vertex="1" parent="J0OiQJHWBUIPdCi0FXls-1">
          <mxGeometry x="275" y="303" width="60" height="30" as="geometry" />
        </mxCell>
        <mxCell id="J0OiQJHWBUIPdCi0FXls-81" value="Search policies" style="ellipse;whiteSpace=wrap;html=1;" vertex="1" parent="J0OiQJHWBUIPdCi0FXls-1">
          <mxGeometry x="217.5" y="620" width="120" height="80" as="geometry" />
        </mxCell>
        <mxCell id="J0OiQJHWBUIPdCi0FXls-82" value="" style="endArrow=none;html=1;rounded=0;entryX=0.021;entryY=0.25;entryDx=0;entryDy=0;entryPerimeter=0;" edge="1" parent="J0OiQJHWBUIPdCi0FXls-1" target="J0OiQJHWBUIPdCi0FXls-81">
          <mxGeometry width="50" height="50" relative="1" as="geometry">
            <mxPoint x="80" y="400" as="sourcePoint" />
            <mxPoint x="110" y="500" as="targetPoint" />
          </mxGeometry>
        </mxCell>
        <mxCell id="J0OiQJHWBUIPdCi0FXls-83" value="Query and review data" style="ellipse;whiteSpace=wrap;html=1;" vertex="1" parent="J0OiQJHWBUIPdCi0FXls-1">
          <mxGeometry x="217.5" y="710" width="120" height="80" as="geometry" />
        </mxCell>
        <mxCell id="J0OiQJHWBUIPdCi0FXls-84" value="Manage users" style="ellipse;whiteSpace=wrap;html=1;" vertex="1" parent="J0OiQJHWBUIPdCi0FXls-1">
          <mxGeometry x="225" y="810" width="120" height="80" as="geometry" />
        </mxCell>
        <mxCell id="J0OiQJHWBUIPdCi0FXls-85" value="Admins" style="shape=umlActor;verticalLabelPosition=bottom;verticalAlign=top;html=1;outlineConnect=0;" vertex="1" parent="J0OiQJHWBUIPdCi0FXls-1">
          <mxGeometry x="40" y="590" width="30" height="60" as="geometry" />
        </mxCell>
        <mxCell id="J0OiQJHWBUIPdCi0FXls-86" value="" style="endArrow=none;html=1;rounded=0;entryX=0.025;entryY=0.725;entryDx=0;entryDy=0;entryPerimeter=0;exitX=1;exitY=0.3333333333333333;exitDx=0;exitDy=0;exitPerimeter=0;" edge="1" parent="J0OiQJHWBUIPdCi0FXls-1" source="J0OiQJHWBUIPdCi0FXls-85" target="J0OiQJHWBUIPdCi0FXls-69">
          <mxGeometry width="50" height="50" relative="1" as="geometry">
            <mxPoint x="70" y="570" as="sourcePoint" />
            <mxPoint x="120" y="520" as="targetPoint" />
          </mxGeometry>
        </mxCell>
        <mxCell id="J0OiQJHWBUIPdCi0FXls-87" value="" style="endArrow=none;html=1;rounded=0;exitX=1;exitY=0.3333333333333333;exitDx=0;exitDy=0;exitPerimeter=0;entryX=0.033;entryY=0.288;entryDx=0;entryDy=0;entryPerimeter=0;" edge="1" parent="J0OiQJHWBUIPdCi0FXls-1" source="J0OiQJHWBUIPdCi0FXls-85" target="J0OiQJHWBUIPdCi0FXls-84">
          <mxGeometry width="50" height="50" relative="1" as="geometry">
            <mxPoint x="70" y="690" as="sourcePoint" />
            <mxPoint x="120" y="640" as="targetPoint" />
          </mxGeometry>
        </mxCell>
        <mxCell id="J0OiQJHWBUIPdCi0FXls-88" value="" style="endArrow=none;html=1;rounded=0;entryX=-0.004;entryY=0.4;entryDx=0;entryDy=0;entryPerimeter=0;" edge="1" parent="J0OiQJHWBUIPdCi0FXls-1" target="J0OiQJHWBUIPdCi0FXls-83">
          <mxGeometry width="50" height="50" relative="1" as="geometry">
            <mxPoint x="80" y="400" as="sourcePoint" />
            <mxPoint x="130" y="400" as="targetPoint" />
          </mxGeometry>
        </mxCell>
        <mxCell id="J0OiQJHWBUIPdCi0FXls-89" value="" style="endArrow=classic;html=1;rounded=0;exitX=1;exitY=0.5;exitDx=0;exitDy=0;" edge="1" parent="J0OiQJHWBUIPdCi0FXls-1" source="J0OiQJHWBUIPdCi0FXls-77" target="J0OiQJHWBUIPdCi0FXls-73">
          <mxGeometry width="50" height="50" relative="1" as="geometry">
            <mxPoint x="395.99993953479014" y="507.9965412525884" as="sourcePoint" />
            <mxPoint x="431.99993953479014" y="445.9965412525884" as="targetPoint" />
          </mxGeometry>
        </mxCell>
        <mxCell id="J0OiQJHWBUIPdCi0FXls-90" value="&amp;lt;includes&amp;gt;" style="text;html=1;strokeColor=none;fillColor=none;align=center;verticalAlign=middle;whiteSpace=wrap;rounded=0;rotation=-60;" vertex="1" parent="J0OiQJHWBUIPdCi0FXls-1">
          <mxGeometry x="315.99993953479014" y="405.9965412525884" width="60" height="30" as="geometry" />
        </mxCell>
        <mxCell id="J0OiQJHWBUIPdCi0FXls-91" value="&lt;div&gt;Crackers/&lt;/div&gt;&lt;div&gt;Malicious users&lt;/div&gt;&lt;div&gt;&lt;br&gt;&lt;/div&gt;" style="shape=umlActor;verticalLabelPosition=bottom;verticalAlign=top;html=1;outlineConnect=0;" vertex="1" parent="J0OiQJHWBUIPdCi0FXls-1">
          <mxGeometry x="846" y="349" width="30" height="61" as="geometry" />
        </mxCell>
        <mxCell id="J0OiQJHWBUIPdCi0FXls-92" value="SQL Injection" style="ellipse;whiteSpace=wrap;html=1;strokeColor=#FF0000;" vertex="1" parent="J0OiQJHWBUIPdCi0FXls-1">
          <mxGeometry x="601" y="214" width="120" height="80" as="geometry" />
        </mxCell>
        <mxCell id="J0OiQJHWBUIPdCi0FXls-93" value="Sniffing Personal Infromation" style="ellipse;whiteSpace=wrap;html=1;strokeColor=#FF0000;" vertex="1" parent="J0OiQJHWBUIPdCi0FXls-1">
          <mxGeometry x="622" y="366" width="120" height="80" as="geometry" />
        </mxCell>
        <mxCell id="J0OiQJHWBUIPdCi0FXls-94" value="Obtaining password" style="ellipse;whiteSpace=wrap;html=1;strokeColor=#FF0000;" vertex="1" parent="J0OiQJHWBUIPdCi0FXls-1">
          <mxGeometry x="626" y="501" width="120" height="80" as="geometry" />
        </mxCell>
        <mxCell id="J0OiQJHWBUIPdCi0FXls-95" value="&lt;br&gt;&lt;br&gt;&lt;br&gt;&lt;br&gt;&lt;br&gt;&lt;br&gt;&lt;br&gt;&lt;br&gt;&lt;br&gt;&lt;br&gt;Cross-site request forgery&lt;br&gt;&lt;br&gt;&lt;br&gt;&lt;br&gt;&lt;br&gt;&lt;br&gt;&lt;br&gt;&lt;br&gt;&lt;br&gt;&lt;br&gt;" style="ellipse;whiteSpace=wrap;html=1;strokeColor=#FF0000;" vertex="1" parent="J0OiQJHWBUIPdCi0FXls-1">
          <mxGeometry x="622" y="646" width="120" height="80" as="geometry" />
        </mxCell>
        <mxCell id="J0OiQJHWBUIPdCi0FXls-96" value="" style="endArrow=none;html=1;rounded=0;exitX=1;exitY=0.5;exitDx=0;exitDy=0;entryX=0;entryY=0.3333333333333333;entryDx=0;entryDy=0;entryPerimeter=0;" edge="1" parent="J0OiQJHWBUIPdCi0FXls-1" source="J0OiQJHWBUIPdCi0FXls-92" target="J0OiQJHWBUIPdCi0FXls-91">
          <mxGeometry width="50" height="50" relative="1" as="geometry">
            <mxPoint x="744" y="310" as="sourcePoint" />
            <mxPoint x="838" y="391" as="targetPoint" />
          </mxGeometry>
        </mxCell>
        <mxCell id="J0OiQJHWBUIPdCi0FXls-97" value="" style="endArrow=none;html=1;rounded=0;entryX=0;entryY=0.3333333333333333;entryDx=0;entryDy=0;entryPerimeter=0;exitX=1;exitY=0.5;exitDx=0;exitDy=0;" edge="1" parent="J0OiQJHWBUIPdCi0FXls-1" source="J0OiQJHWBUIPdCi0FXls-93" target="J0OiQJHWBUIPdCi0FXls-91">
          <mxGeometry width="50" height="50" relative="1" as="geometry">
            <mxPoint x="759" y="398" as="sourcePoint" />
            <mxPoint x="809" y="348" as="targetPoint" />
          </mxGeometry>
        </mxCell>
        <mxCell id="J0OiQJHWBUIPdCi0FXls-98" value="" style="endArrow=none;html=1;rounded=0;entryX=0;entryY=0.3333333333333333;entryDx=0;entryDy=0;entryPerimeter=0;exitX=1.003;exitY=0.413;exitDx=0;exitDy=0;exitPerimeter=0;" edge="1" parent="J0OiQJHWBUIPdCi0FXls-1" source="J0OiQJHWBUIPdCi0FXls-94" target="J0OiQJHWBUIPdCi0FXls-91">
          <mxGeometry width="50" height="50" relative="1" as="geometry">
            <mxPoint x="752.0000000000041" y="415.9999999999998" as="sourcePoint" />
            <mxPoint x="856" y="379.3333333333335" as="targetPoint" />
          </mxGeometry>
        </mxCell>
        <mxCell id="J0OiQJHWBUIPdCi0FXls-99" value="" style="endArrow=none;html=1;rounded=0;entryX=0;entryY=0.3333333333333333;entryDx=0;entryDy=0;entryPerimeter=0;exitX=1;exitY=0.39;exitDx=0;exitDy=0;exitPerimeter=0;" edge="1" parent="J0OiQJHWBUIPdCi0FXls-1" source="J0OiQJHWBUIPdCi0FXls-95" target="J0OiQJHWBUIPdCi0FXls-91">
          <mxGeometry width="50" height="50" relative="1" as="geometry">
            <mxPoint x="756.3600000000001" y="544.04" as="sourcePoint" />
            <mxPoint x="856" y="379.3333333333335" as="targetPoint" />
          </mxGeometry>
        </mxCell>
        <mxCell id="J0OiQJHWBUIPdCi0FXls-100" value="" style="endArrow=classic;html=1;rounded=0;entryX=1;entryY=0.5;entryDx=0;entryDy=0;exitX=0.042;exitY=0.701;exitDx=0;exitDy=0;exitPerimeter=0;strokeColor=#FF0000;startArrow=none;" edge="1" parent="J0OiQJHWBUIPdCi0FXls-1" source="J0OiQJHWBUIPdCi0FXls-104" target="J0OiQJHWBUIPdCi0FXls-81">
          <mxGeometry width="50" height="50" relative="1" as="geometry">
            <mxPoint x="660" y="247" as="sourcePoint" />
            <mxPoint x="584" y="153" as="targetPoint" />
          </mxGeometry>
        </mxCell>
        <mxCell id="J0OiQJHWBUIPdCi0FXls-101" value="" style="endArrow=classic;html=1;rounded=0;exitX=0;exitY=1;exitDx=0;exitDy=0;strokeColor=#FF0000;startArrow=none;" edge="1" parent="J0OiQJHWBUIPdCi0FXls-1" source="J0OiQJHWBUIPdCi0FXls-102">
          <mxGeometry width="50" height="50" relative="1" as="geometry">
            <mxPoint x="667" y="250" as="sourcePoint" />
            <mxPoint x="339" y="750" as="targetPoint" />
          </mxGeometry>
        </mxCell>
        <mxCell id="J0OiQJHWBUIPdCi0FXls-102" value="&lt;font color=&quot;#FF0000&quot;&gt;Threatens&lt;/font&gt;" style="text;html=1;strokeColor=none;fillColor=none;align=center;verticalAlign=middle;whiteSpace=wrap;rounded=0;rotation=-45;" vertex="1" parent="J0OiQJHWBUIPdCi0FXls-1">
          <mxGeometry x="440" y="522" width="60" height="30" as="geometry" />
        </mxCell>
        <mxCell id="J0OiQJHWBUIPdCi0FXls-103" value="" style="endArrow=none;html=1;rounded=0;exitX=0;exitY=1;exitDx=0;exitDy=0;strokeColor=#FF0000;" edge="1" parent="J0OiQJHWBUIPdCi0FXls-1" source="J0OiQJHWBUIPdCi0FXls-92" target="J0OiQJHWBUIPdCi0FXls-102">
          <mxGeometry width="50" height="50" relative="1" as="geometry">
            <mxPoint x="618.5735931288073" y="282.28427124746213" as="sourcePoint" />
            <mxPoint x="338.9999999999998" y="750" as="targetPoint" />
          </mxGeometry>
        </mxCell>
        <mxCell id="J0OiQJHWBUIPdCi0FXls-104" value="&lt;font color=&quot;#FF0000&quot;&gt;Threatens&lt;/font&gt;" style="text;html=1;strokeColor=none;fillColor=none;align=center;verticalAlign=middle;whiteSpace=wrap;rounded=0;rotation=-45;" vertex="1" parent="J0OiQJHWBUIPdCi0FXls-1">
          <mxGeometry x="422" y="475" width="60" height="30" as="geometry" />
        </mxCell>
        <mxCell id="J0OiQJHWBUIPdCi0FXls-105" value="" style="endArrow=none;html=1;rounded=0;entryX=1;entryY=0.5;entryDx=0;entryDy=0;exitX=0.042;exitY=0.701;exitDx=0;exitDy=0;exitPerimeter=0;strokeColor=#FF0000;" edge="1" parent="J0OiQJHWBUIPdCi0FXls-1" source="J0OiQJHWBUIPdCi0FXls-92" target="J0OiQJHWBUIPdCi0FXls-104">
          <mxGeometry width="50" height="50" relative="1" as="geometry">
            <mxPoint x="606.04" y="270.0799999999999" as="sourcePoint" />
            <mxPoint x="337.5" y="660" as="targetPoint" />
          </mxGeometry>
        </mxCell>
        <mxCell id="J0OiQJHWBUIPdCi0FXls-106" value="" style="endArrow=classic;html=1;rounded=0;fontColor=#FF0000;strokeColor=#FF0000;entryX=1;entryY=0.5;entryDx=0;entryDy=0;exitX=0.015;exitY=0.415;exitDx=0;exitDy=0;exitPerimeter=0;" edge="1" parent="J0OiQJHWBUIPdCi0FXls-1" source="J0OiQJHWBUIPdCi0FXls-93" target="J0OiQJHWBUIPdCi0FXls-69">
          <mxGeometry width="50" height="50" relative="1" as="geometry">
            <mxPoint x="613" y="402" as="sourcePoint" />
            <mxPoint x="381" y="102" as="targetPoint" />
          </mxGeometry>
        </mxCell>
        <mxCell id="J0OiQJHWBUIPdCi0FXls-107" value="" style="endArrow=classic;html=1;rounded=0;fontColor=#FF0000;strokeColor=#FF0000;entryX=1;entryY=0.5;entryDx=0;entryDy=0;exitX=-0.004;exitY=0.621;exitDx=0;exitDy=0;exitPerimeter=0;" edge="1" parent="J0OiQJHWBUIPdCi0FXls-1" source="J0OiQJHWBUIPdCi0FXls-95" target="J0OiQJHWBUIPdCi0FXls-84">
          <mxGeometry width="50" height="50" relative="1" as="geometry">
            <mxPoint x="623" y="412" as="sourcePoint" />
            <mxPoint x="343.0000000000043" y="129.99999999999977" as="targetPoint" />
          </mxGeometry>
        </mxCell>
        <mxCell id="J0OiQJHWBUIPdCi0FXls-108" value="" style="endArrow=classic;html=1;rounded=0;fontColor=#FF0000;strokeColor=#FF0000;entryX=0.985;entryY=0.619;entryDx=0;entryDy=0;exitX=0.05;exitY=0.199;exitDx=0;exitDy=0;exitPerimeter=0;entryPerimeter=0;" edge="1" parent="J0OiQJHWBUIPdCi0FXls-1" source="J0OiQJHWBUIPdCi0FXls-94" target="J0OiQJHWBUIPdCi0FXls-70">
          <mxGeometry width="50" height="50" relative="1" as="geometry">
            <mxPoint x="633.8000000000002" y="409.20000000000005" as="sourcePoint" />
            <mxPoint x="343.0000000000043" y="129.99999999999977" as="targetPoint" />
          </mxGeometry>
        </mxCell>
        <mxCell id="J0OiQJHWBUIPdCi0FXls-109" value="" style="endArrow=classic;html=1;rounded=0;fontColor=#FF0000;strokeColor=#FF0000;entryX=1;entryY=0.338;entryDx=0;entryDy=0;entryPerimeter=0;exitX=0;exitY=0.5;exitDx=0;exitDy=0;startArrow=none;" edge="1" parent="J0OiQJHWBUIPdCi0FXls-1" source="J0OiQJHWBUIPdCi0FXls-110" target="J0OiQJHWBUIPdCi0FXls-75">
          <mxGeometry width="50" height="50" relative="1" as="geometry">
            <mxPoint x="600" y="264" as="sourcePoint" />
            <mxPoint x="597" y="262" as="targetPoint" />
          </mxGeometry>
        </mxCell>
        <mxCell id="J0OiQJHWBUIPdCi0FXls-110" value="&lt;font color=&quot;#FF0000&quot;&gt;Threatens&lt;/font&gt;" style="text;html=1;strokeColor=none;fillColor=none;align=center;verticalAlign=middle;whiteSpace=wrap;rounded=0;rotation=-45;" vertex="1" parent="J0OiQJHWBUIPdCi0FXls-1">
          <mxGeometry x="402" y="415" width="60" height="30" as="geometry" />
        </mxCell>
        <mxCell id="J0OiQJHWBUIPdCi0FXls-111" value="" style="endArrow=none;html=1;rounded=0;fontColor=#FF0000;strokeColor=#FF0000;entryX=1;entryY=0.338;entryDx=0;entryDy=0;entryPerimeter=0;exitX=0;exitY=0.5;exitDx=0;exitDy=0;" edge="1" parent="J0OiQJHWBUIPdCi0FXls-1" source="J0OiQJHWBUIPdCi0FXls-92" target="J0OiQJHWBUIPdCi0FXls-110">
          <mxGeometry width="50" height="50" relative="1" as="geometry">
            <mxPoint x="601" y="254" as="sourcePoint" />
            <mxPoint x="345" y="547.0399999999997" as="targetPoint" />
          </mxGeometry>
        </mxCell>
        <mxCell id="J0OiQJHWBUIPdCi0FXls-112" value="&lt;font color=&quot;#FF0000&quot;&gt;Threatens&lt;/font&gt;" style="text;html=1;strokeColor=none;fillColor=none;align=center;verticalAlign=middle;whiteSpace=wrap;rounded=0;rotation=45;" vertex="1" parent="J0OiQJHWBUIPdCi0FXls-1">
          <mxGeometry x="438" y="287" width="60" height="30" as="geometry" />
        </mxCell>
        <mxCell id="J0OiQJHWBUIPdCi0FXls-113" value="&lt;font color=&quot;#FF0000&quot;&gt;Threatens&lt;/font&gt;" style="text;html=1;strokeColor=none;fillColor=none;align=center;verticalAlign=middle;whiteSpace=wrap;rounded=0;rotation=45;" vertex="1" parent="J0OiQJHWBUIPdCi0FXls-1">
          <mxGeometry x="438" y="210" width="60" height="30" as="geometry" />
        </mxCell>
        <mxCell id="J0OiQJHWBUIPdCi0FXls-114" value="&lt;font color=&quot;#FF0000&quot;&gt;Threatens&lt;/font&gt;" style="text;html=1;strokeColor=none;fillColor=none;align=center;verticalAlign=middle;whiteSpace=wrap;rounded=0;rotation=45;" vertex="1" parent="J0OiQJHWBUIPdCi0FXls-1">
          <mxGeometry x="473" y="661" width="60" height="30" as="geometry" />
        </mxCell>
        <mxCell id="J0OiQJHWBUIPdCi0FXls-115" value="" style="endArrow=classic;html=1;rounded=0;fontColor=#FF0000;strokeColor=#FF0000;exitX=-0.004;exitY=0.621;exitDx=0;exitDy=0;exitPerimeter=0;" edge="1" parent="J0OiQJHWBUIPdCi0FXls-1" target="J0OiQJHWBUIPdCi0FXls-77">
          <mxGeometry width="50" height="50" relative="1" as="geometry">
            <mxPoint x="631.5200000000002" y="705.6800000000001" as="sourcePoint" />
            <mxPoint x="355" y="860" as="targetPoint" />
          </mxGeometry>
        </mxCell>
        <mxCell id="J0OiQJHWBUIPdCi0FXls-116" value="&lt;font color=&quot;#FF0000&quot;&gt;Threatens&lt;/font&gt;" style="text;html=1;strokeColor=none;fillColor=none;align=center;verticalAlign=middle;whiteSpace=wrap;rounded=0;rotation=30;" vertex="1" parent="J0OiQJHWBUIPdCi0FXls-1">
          <mxGeometry x="482" y="590" width="60" height="30" as="geometry" />
        </mxCell>
        <mxCell id="J0OiQJHWBUIPdCi0FXls-117" value="Auditors" style="shape=umlActor;verticalLabelPosition=bottom;verticalAlign=top;html=1;outlineConnect=0;" vertex="1" parent="J0OiQJHWBUIPdCi0FXls-1">
          <mxGeometry x="36" y="830" width="30" height="60" as="geometry" />
        </mxCell>
        <mxCell id="J0OiQJHWBUIPdCi0FXls-118" value="Review audit logs" style="ellipse;whiteSpace=wrap;html=1;" vertex="1" parent="J0OiQJHWBUIPdCi0FXls-1">
          <mxGeometry x="225" y="910" width="120" height="80" as="geometry" />
        </mxCell>
        <mxCell id="J0OiQJHWBUIPdCi0FXls-119" value="" style="endArrow=none;html=1;rounded=0;fontColor=#FF0000;strokeColor=#1A1A1A;exitX=1;exitY=0.3333333333333333;exitDx=0;exitDy=0;exitPerimeter=0;entryX=0;entryY=0.5;entryDx=0;entryDy=0;" edge="1" parent="J0OiQJHWBUIPdCi0FXls-1" source="J0OiQJHWBUIPdCi0FXls-117" target="J0OiQJHWBUIPdCi0FXls-118">
          <mxGeometry width="50" height="50" relative="1" as="geometry">
            <mxPoint x="67" y="914" as="sourcePoint" />
            <mxPoint x="117" y="864" as="targetPoint" />
          </mxGeometry>
        </mxCell>
        <mxCell id="J0OiQJHWBUIPdCi0FXls-120" value="" style="endArrow=none;html=1;rounded=0;fontColor=#FF0000;strokeColor=#1A1A1A;" edge="1" parent="J0OiQJHWBUIPdCi0FXls-1">
          <mxGeometry width="50" height="50" relative="1" as="geometry">
            <mxPoint x="79" y="398" as="sourcePoint" />
            <mxPoint x="226" y="947" as="targetPoint" />
          </mxGeometry>
        </mxCell>
        <mxCell id="_nAgNhutx_4HDKrC56hE-0" value="Buffer overflow" style="ellipse;whiteSpace=wrap;html=1;strokeColor=#FF0000;" vertex="1" parent="J0OiQJHWBUIPdCi0FXls-1">
          <mxGeometry x="636" y="775" width="120" height="80" as="geometry" />
        </mxCell>
        <mxCell id="_nAgNhutx_4HDKrC56hE-1" value="" style="endArrow=none;html=1;rounded=0;exitX=0.958;exitY=0.275;exitDx=0;exitDy=0;exitPerimeter=0;" edge="1" parent="J0OiQJHWBUIPdCi0FXls-1" source="_nAgNhutx_4HDKrC56hE-0">
          <mxGeometry width="50" height="50" relative="1" as="geometry">
            <mxPoint x="752" y="687.2" as="sourcePoint" />
            <mxPoint x="846" y="374" as="targetPoint" />
          </mxGeometry>
        </mxCell>
        <mxCell id="_nAgNhutx_4HDKrC56hE-2" value="" style="endArrow=classic;html=1;rounded=0;fontColor=#FF0000;strokeColor=#FF0000;exitX=0.008;exitY=0.638;exitDx=0;exitDy=0;exitPerimeter=0;entryX=1;entryY=0.4;entryDx=0;entryDy=0;entryPerimeter=0;" edge="1" parent="J0OiQJHWBUIPdCi0FXls-1" source="_nAgNhutx_4HDKrC56hE-0" target="J0OiQJHWBUIPdCi0FXls-75">
          <mxGeometry width="50" height="50" relative="1" as="geometry">
            <mxPoint x="631.52" y="705.6800000000001" as="sourcePoint" />
            <mxPoint x="339" y="660" as="targetPoint" />
          </mxGeometry>
        </mxCell>
        <mxCell id="_nAgNhutx_4HDKrC56hE-3" value="" style="endArrow=classic;html=1;rounded=0;fontColor=#FF0000;strokeColor=#FF0000;exitX=0.008;exitY=0.638;exitDx=0;exitDy=0;exitPerimeter=0;" edge="1" parent="J0OiQJHWBUIPdCi0FXls-1">
          <mxGeometry width="50" height="50" relative="1" as="geometry">
            <mxPoint x="646.96" y="836.04" as="sourcePoint" />
            <mxPoint x="341" y="750" as="targetPoint" />
          </mxGeometry>
        </mxCell>
      </root>
    </mxGraphModel>
  </diagram>
  <diagram name="Copy of Copy of Page-1" id="DMQepJVyl_q_2dRQqiHE">
    <mxGraphModel dx="1586" dy="1190" grid="0" gridSize="10" guides="1" tooltips="1" connect="1" arrows="1" fold="1" page="0" pageScale="1" pageWidth="827" pageHeight="1169" math="0" shadow="0">
      <root>
        <mxCell id="JcYZQ2rRvLhwklENSe09-0" />
        <mxCell id="JcYZQ2rRvLhwklENSe09-1" parent="JcYZQ2rRvLhwklENSe09-0" />
        <mxCell id="JcYZQ2rRvLhwklENSe09-2" value="Citizen" style="shape=umlActor;verticalLabelPosition=bottom;verticalAlign=top;html=1;outlineConnect=0;" vertex="1" parent="JcYZQ2rRvLhwklENSe09-1">
          <mxGeometry x="63" y="-184" width="30" height="60" as="geometry" />
        </mxCell>
        <mxCell id="JcYZQ2rRvLhwklENSe09-3" value="jhu" style="ellipse;whiteSpace=wrap;html=1;" vertex="1" parent="JcYZQ2rRvLhwklENSe09-1">
          <mxGeometry x="543" y="-201" width="120" height="50" as="geometry" />
        </mxCell>
        <mxCell id="JcYZQ2rRvLhwklENSe09-4" value="" style="endArrow=classic;html=1;exitX=0;exitY=0.5;exitDx=0;exitDy=0;" edge="1" parent="JcYZQ2rRvLhwklENSe09-1" source="JcYZQ2rRvLhwklENSe09-3">
          <mxGeometry width="50" height="50" relative="1" as="geometry">
            <mxPoint x="382" y="-178.5" as="sourcePoint" />
            <mxPoint x="417" y="-188" as="targetPoint" />
          </mxGeometry>
        </mxCell>
        <mxCell id="JcYZQ2rRvLhwklENSe09-5" value="csbs" style="ellipse;whiteSpace=wrap;html=1;" vertex="1" parent="JcYZQ2rRvLhwklENSe09-1">
          <mxGeometry x="543" y="-276" width="120" height="50" as="geometry" />
        </mxCell>
        <mxCell id="JcYZQ2rRvLhwklENSe09-6" value="nyt" style="ellipse;whiteSpace=wrap;html=1;" vertex="1" parent="JcYZQ2rRvLhwklENSe09-1">
          <mxGeometry x="543" y="-126" width="120" height="50" as="geometry" />
        </mxCell>
        <mxCell id="JcYZQ2rRvLhwklENSe09-7" value="" style="endArrow=classic;html=1;exitX=0;exitY=0.5;exitDx=0;exitDy=0;" edge="1" parent="JcYZQ2rRvLhwklENSe09-1" source="JcYZQ2rRvLhwklENSe09-5">
          <mxGeometry width="50" height="50" relative="1" as="geometry">
            <mxPoint x="600" y="-253" as="sourcePoint" />
            <mxPoint x="422" y="-200" as="targetPoint" />
          </mxGeometry>
        </mxCell>
        <mxCell id="JcYZQ2rRvLhwklENSe09-8" value="" style="endArrow=classic;html=1;exitX=0.025;exitY=0.3;exitDx=0;exitDy=0;exitPerimeter=0;" edge="1" parent="JcYZQ2rRvLhwklENSe09-1" source="JcYZQ2rRvLhwklENSe09-6">
          <mxGeometry width="50" height="50" relative="1" as="geometry">
            <mxPoint x="612" y="-130" as="sourcePoint" />
            <mxPoint x="418" y="-166" as="targetPoint" />
          </mxGeometry>
        </mxCell>
        <mxCell id="JcYZQ2rRvLhwklENSe09-9" value="" style="rounded=0;whiteSpace=wrap;html=1;" vertex="1" parent="JcYZQ2rRvLhwklENSe09-1">
          <mxGeometry x="183" y="-316" width="234" height="312" as="geometry" />
        </mxCell>
        <mxCell id="JcYZQ2rRvLhwklENSe09-10" value="View overall Coronavirus data" style="ellipse;whiteSpace=wrap;html=1;" vertex="1" parent="JcYZQ2rRvLhwklENSe09-1">
          <mxGeometry x="225" y="-243" width="120" height="50" as="geometry" />
        </mxCell>
        <mxCell id="JcYZQ2rRvLhwklENSe09-11" value="&lt;div&gt;View Coronavirus data&lt;/div&gt;&lt;div&gt;for specific location&lt;br&gt;&lt;/div&gt;" style="ellipse;whiteSpace=wrap;html=1;" vertex="1" parent="JcYZQ2rRvLhwklENSe09-1">
          <mxGeometry x="225" y="-166" width="120" height="50" as="geometry" />
        </mxCell>
        <mxCell id="JcYZQ2rRvLhwklENSe09-12" value="&lt;div&gt;View everyday&#39;s Coronavirus data&lt;/div&gt;&lt;div&gt;for specific location&lt;br&gt;&lt;/div&gt;" style="ellipse;whiteSpace=wrap;html=1;" vertex="1" parent="JcYZQ2rRvLhwklENSe09-1">
          <mxGeometry x="227" y="-97" width="130" height="66" as="geometry" />
        </mxCell>
        <mxCell id="JcYZQ2rRvLhwklENSe09-13" value="" style="endArrow=classic;html=1;" edge="1" parent="JcYZQ2rRvLhwklENSe09-1">
          <mxGeometry width="50" height="50" relative="1" as="geometry">
            <mxPoint x="97" y="-165" as="sourcePoint" />
            <mxPoint x="222" y="-215" as="targetPoint" />
          </mxGeometry>
        </mxCell>
        <mxCell id="JcYZQ2rRvLhwklENSe09-14" value="" style="endArrow=classic;html=1;entryX=0;entryY=0.5;entryDx=0;entryDy=0;" edge="1" parent="JcYZQ2rRvLhwklENSe09-1" target="JcYZQ2rRvLhwklENSe09-11">
          <mxGeometry width="50" height="50" relative="1" as="geometry">
            <mxPoint x="99" y="-150" as="sourcePoint" />
            <mxPoint x="149" y="-142" as="targetPoint" />
          </mxGeometry>
        </mxCell>
        <mxCell id="JcYZQ2rRvLhwklENSe09-15" value="" style="endArrow=classic;html=1;" edge="1" parent="JcYZQ2rRvLhwklENSe09-1">
          <mxGeometry width="50" height="50" relative="1" as="geometry">
            <mxPoint x="102" y="-140" as="sourcePoint" />
            <mxPoint x="224" y="-74" as="targetPoint" />
          </mxGeometry>
        </mxCell>
        <mxCell id="JcYZQ2rRvLhwklENSe09-16" value="Web Interface" style="text;html=1;strokeColor=none;fillColor=none;align=center;verticalAlign=middle;whiteSpace=wrap;rounded=0;" vertex="1" parent="JcYZQ2rRvLhwklENSe09-1">
          <mxGeometry x="246" y="-303" width="103" height="20" as="geometry" />
        </mxCell>
        <mxCell id="JcYZQ2rRvLhwklENSe09-17" value="Person" style="swimlane;fontStyle=0;childLayout=stackLayout;horizontal=1;startSize=26;horizontalStack=0;resizeParent=1;resizeParentMax=0;resizeLast=0;collapsible=1;marginBottom=0;" vertex="1" parent="JcYZQ2rRvLhwklENSe09-1">
          <mxGeometry x="55" y="1179" width="140" height="52" as="geometry" />
        </mxCell>
        <mxCell id="JcYZQ2rRvLhwklENSe09-18" value="Location" style="swimlane;fontStyle=0;childLayout=stackLayout;horizontal=1;startSize=26;horizontalStack=0;resizeParent=1;resizeParentMax=0;resizeLast=0;collapsible=1;marginBottom=0;" vertex="1" parent="JcYZQ2rRvLhwklENSe09-1">
          <mxGeometry x="376" y="1179" width="140" height="78" as="geometry" />
        </mxCell>
        <mxCell id="JcYZQ2rRvLhwklENSe09-19" value="country" style="text;strokeColor=none;fillColor=none;align=left;verticalAlign=top;spacingLeft=4;spacingRight=4;overflow=hidden;rotatable=0;points=[[0,0.5],[1,0.5]];portConstraint=eastwest;" vertex="1" parent="JcYZQ2rRvLhwklENSe09-18">
          <mxGeometry y="26" width="140" height="26" as="geometry" />
        </mxCell>
        <mxCell id="JcYZQ2rRvLhwklENSe09-20" value="state" style="text;strokeColor=none;fillColor=none;align=left;verticalAlign=top;spacingLeft=4;spacingRight=4;overflow=hidden;rotatable=0;points=[[0,0.5],[1,0.5]];portConstraint=eastwest;" vertex="1" parent="JcYZQ2rRvLhwklENSe09-18">
          <mxGeometry y="52" width="140" height="26" as="geometry" />
        </mxCell>
        <mxCell id="JcYZQ2rRvLhwklENSe09-21" value="" style="endArrow=none;html=1;exitX=1;exitY=0.5;exitDx=0;exitDy=0;" edge="1" parent="JcYZQ2rRvLhwklENSe09-1" source="JcYZQ2rRvLhwklENSe09-17">
          <mxGeometry width="50" height="50" relative="1" as="geometry">
            <mxPoint x="238" y="1238" as="sourcePoint" />
            <mxPoint x="375" y="1205" as="targetPoint" />
          </mxGeometry>
        </mxCell>
        <mxCell id="JcYZQ2rRvLhwklENSe09-22" value="Coronavirus Data" style="swimlane;fontStyle=0;childLayout=stackLayout;horizontal=1;startSize=26;horizontalStack=0;resizeParent=1;resizeParentMax=0;resizeLast=0;collapsible=1;marginBottom=0;" vertex="1" parent="JcYZQ2rRvLhwklENSe09-1">
          <mxGeometry x="55" y="1341" width="140" height="104" as="geometry" />
        </mxCell>
        <mxCell id="JcYZQ2rRvLhwklENSe09-23" value="cofirmed" style="text;strokeColor=none;fillColor=none;align=left;verticalAlign=top;spacingLeft=4;spacingRight=4;overflow=hidden;rotatable=0;points=[[0,0.5],[1,0.5]];portConstraint=eastwest;" vertex="1" parent="JcYZQ2rRvLhwklENSe09-22">
          <mxGeometry y="26" width="140" height="26" as="geometry" />
        </mxCell>
        <mxCell id="JcYZQ2rRvLhwklENSe09-24" value="Death" style="text;strokeColor=none;fillColor=none;align=left;verticalAlign=top;spacingLeft=4;spacingRight=4;overflow=hidden;rotatable=0;points=[[0,0.5],[1,0.5]];portConstraint=eastwest;" vertex="1" parent="JcYZQ2rRvLhwklENSe09-22">
          <mxGeometry y="52" width="140" height="26" as="geometry" />
        </mxCell>
        <mxCell id="JcYZQ2rRvLhwklENSe09-25" value="Recover" style="text;strokeColor=none;fillColor=none;align=left;verticalAlign=top;spacingLeft=4;spacingRight=4;overflow=hidden;rotatable=0;points=[[0,0.5],[1,0.5]];portConstraint=eastwest;" vertex="1" parent="JcYZQ2rRvLhwklENSe09-22">
          <mxGeometry y="78" width="140" height="26" as="geometry" />
        </mxCell>
        <mxCell id="JcYZQ2rRvLhwklENSe09-26" value="Data Source" style="swimlane;fontStyle=0;childLayout=stackLayout;horizontal=1;startSize=26;horizontalStack=0;resizeParent=1;resizeParentMax=0;resizeLast=0;collapsible=1;marginBottom=0;" vertex="1" parent="JcYZQ2rRvLhwklENSe09-1">
          <mxGeometry x="314" y="1360" width="140" height="104" as="geometry" />
        </mxCell>
        <mxCell id="JcYZQ2rRvLhwklENSe09-27" value="jhu" style="text;strokeColor=none;fillColor=none;align=left;verticalAlign=top;spacingLeft=4;spacingRight=4;overflow=hidden;rotatable=0;points=[[0,0.5],[1,0.5]];portConstraint=eastwest;" vertex="1" parent="JcYZQ2rRvLhwklENSe09-26">
          <mxGeometry y="26" width="140" height="26" as="geometry" />
        </mxCell>
        <mxCell id="JcYZQ2rRvLhwklENSe09-28" value="csbs" style="text;strokeColor=none;fillColor=none;align=left;verticalAlign=top;spacingLeft=4;spacingRight=4;overflow=hidden;rotatable=0;points=[[0,0.5],[1,0.5]];portConstraint=eastwest;" vertex="1" parent="JcYZQ2rRvLhwklENSe09-26">
          <mxGeometry y="52" width="140" height="26" as="geometry" />
        </mxCell>
        <mxCell id="JcYZQ2rRvLhwklENSe09-29" value="nyt" style="text;strokeColor=none;fillColor=none;align=left;verticalAlign=top;spacingLeft=4;spacingRight=4;overflow=hidden;rotatable=0;points=[[0,0.5],[1,0.5]];portConstraint=eastwest;" vertex="1" parent="JcYZQ2rRvLhwklENSe09-26">
          <mxGeometry y="78" width="140" height="26" as="geometry" />
        </mxCell>
        <mxCell id="JcYZQ2rRvLhwklENSe09-30" value="" style="endArrow=none;html=1;entryX=0.5;entryY=1;entryDx=0;entryDy=0;" edge="1" parent="JcYZQ2rRvLhwklENSe09-1" source="JcYZQ2rRvLhwklENSe09-22" target="JcYZQ2rRvLhwklENSe09-17">
          <mxGeometry width="50" height="50" relative="1" as="geometry">
            <mxPoint x="385" y="1525" as="sourcePoint" />
            <mxPoint x="435" y="1475" as="targetPoint" />
          </mxGeometry>
        </mxCell>
        <mxCell id="JcYZQ2rRvLhwklENSe09-31" value="lives in" style="text;html=1;strokeColor=none;fillColor=none;align=center;verticalAlign=middle;whiteSpace=wrap;rounded=0;" vertex="1" parent="JcYZQ2rRvLhwklENSe09-1">
          <mxGeometry x="265" y="1182" width="40" height="20" as="geometry" />
        </mxCell>
        <mxCell id="JcYZQ2rRvLhwklENSe09-32" value="request" style="text;html=1;strokeColor=none;fillColor=none;align=center;verticalAlign=middle;whiteSpace=wrap;rounded=0;" vertex="1" parent="JcYZQ2rRvLhwklENSe09-1">
          <mxGeometry x="133" y="1283" width="40" height="20" as="geometry" />
        </mxCell>
        <mxCell id="JcYZQ2rRvLhwklENSe09-33" value="" style="endArrow=none;html=1;entryX=1;entryY=0.5;entryDx=0;entryDy=0;" edge="1" parent="JcYZQ2rRvLhwklENSe09-1" target="JcYZQ2rRvLhwklENSe09-22">
          <mxGeometry width="50" height="50" relative="1" as="geometry">
            <mxPoint x="312" y="1392" as="sourcePoint" />
            <mxPoint x="135" y="1241" as="targetPoint" />
          </mxGeometry>
        </mxCell>
        <mxCell id="JcYZQ2rRvLhwklENSe09-34" value="request" style="text;html=1;strokeColor=none;fillColor=none;align=center;verticalAlign=middle;whiteSpace=wrap;rounded=0;" vertex="1" parent="JcYZQ2rRvLhwklENSe09-1">
          <mxGeometry x="235" y="1365" width="40" height="20" as="geometry" />
        </mxCell>
        <mxCell id="JcYZQ2rRvLhwklENSe09-35" value="1" style="text;html=1;strokeColor=none;fillColor=none;align=center;verticalAlign=middle;whiteSpace=wrap;rounded=0;" vertex="1" parent="JcYZQ2rRvLhwklENSe09-1">
          <mxGeometry x="115" y="1231" width="40" height="20" as="geometry" />
        </mxCell>
        <mxCell id="JcYZQ2rRvLhwklENSe09-36" value="&amp;gt;1" style="text;html=1;strokeColor=none;fillColor=none;align=center;verticalAlign=middle;whiteSpace=wrap;rounded=0;" vertex="1" parent="JcYZQ2rRvLhwklENSe09-1">
          <mxGeometry x="119" y="1319" width="40" height="20" as="geometry" />
        </mxCell>
        <mxCell id="JcYZQ2rRvLhwklENSe09-37" value="1" style="text;html=1;strokeColor=none;fillColor=none;align=center;verticalAlign=middle;whiteSpace=wrap;rounded=0;" vertex="1" parent="JcYZQ2rRvLhwklENSe09-1">
          <mxGeometry x="333" y="1184" width="40" height="20" as="geometry" />
        </mxCell>
        <mxCell id="JcYZQ2rRvLhwklENSe09-38" value="1" style="text;html=1;strokeColor=none;fillColor=none;align=center;verticalAlign=middle;whiteSpace=wrap;rounded=0;" vertex="1" parent="JcYZQ2rRvLhwklENSe09-1">
          <mxGeometry x="197" y="1184" width="40" height="20" as="geometry" />
        </mxCell>
        <mxCell id="JcYZQ2rRvLhwklENSe09-39" value="1" style="text;html=1;strokeColor=none;fillColor=none;align=center;verticalAlign=middle;whiteSpace=wrap;rounded=0;" vertex="1" parent="JcYZQ2rRvLhwklENSe09-1">
          <mxGeometry x="185" y="1372" width="40" height="20" as="geometry" />
        </mxCell>
        <mxCell id="JcYZQ2rRvLhwklENSe09-40" value="&amp;gt;1" style="text;html=1;strokeColor=none;fillColor=none;align=center;verticalAlign=middle;whiteSpace=wrap;rounded=0;" vertex="1" parent="JcYZQ2rRvLhwklENSe09-1">
          <mxGeometry x="282" y="1374" width="40" height="20" as="geometry" />
        </mxCell>
        <mxCell id="JcYZQ2rRvLhwklENSe09-41" value="Person" style="swimlane;fontStyle=0;childLayout=stackLayout;horizontal=1;startSize=26;horizontalStack=0;resizeParent=1;resizeParentMax=0;resizeLast=0;collapsible=1;marginBottom=0;" vertex="1" parent="JcYZQ2rRvLhwklENSe09-1">
          <mxGeometry x="29" y="1923" width="140" height="104" as="geometry" />
        </mxCell>
        <mxCell id="JcYZQ2rRvLhwklENSe09-42" value="PK id" style="text;strokeColor=none;fillColor=none;align=left;verticalAlign=top;spacingLeft=4;spacingRight=4;overflow=hidden;rotatable=0;points=[[0,0.5],[1,0.5]];portConstraint=eastwest;" vertex="1" parent="JcYZQ2rRvLhwklENSe09-41">
          <mxGeometry y="26" width="140" height="26" as="geometry" />
        </mxCell>
        <mxCell id="JcYZQ2rRvLhwklENSe09-43" value="name" style="text;strokeColor=none;fillColor=none;align=left;verticalAlign=top;spacingLeft=4;spacingRight=4;overflow=hidden;rotatable=0;points=[[0,0.5],[1,0.5]];portConstraint=eastwest;" vertex="1" parent="JcYZQ2rRvLhwklENSe09-41">
          <mxGeometry y="52" width="140" height="26" as="geometry" />
        </mxCell>
        <mxCell id="JcYZQ2rRvLhwklENSe09-44" value="FK location code" style="text;strokeColor=none;fillColor=none;align=left;verticalAlign=top;spacingLeft=4;spacingRight=4;overflow=hidden;rotatable=0;points=[[0,0.5],[1,0.5]];portConstraint=eastwest;" vertex="1" parent="JcYZQ2rRvLhwklENSe09-41">
          <mxGeometry y="78" width="140" height="26" as="geometry" />
        </mxCell>
        <mxCell id="JcYZQ2rRvLhwklENSe09-45" value="Location" style="swimlane;fontStyle=0;childLayout=stackLayout;horizontal=1;startSize=26;horizontalStack=0;resizeParent=1;resizeParentMax=0;resizeLast=0;collapsible=1;marginBottom=0;" vertex="1" parent="JcYZQ2rRvLhwklENSe09-1">
          <mxGeometry x="369" y="1923" width="140" height="156" as="geometry" />
        </mxCell>
        <mxCell id="JcYZQ2rRvLhwklENSe09-46" value="state" style="text;strokeColor=none;fillColor=none;align=left;verticalAlign=top;spacingLeft=4;spacingRight=4;overflow=hidden;rotatable=0;points=[[0,0.5],[1,0.5]];portConstraint=eastwest;" vertex="1" parent="JcYZQ2rRvLhwklENSe09-45">
          <mxGeometry y="26" width="140" height="26" as="geometry" />
        </mxCell>
        <mxCell id="JcYZQ2rRvLhwklENSe09-47" value="country" style="text;strokeColor=none;fillColor=none;align=left;verticalAlign=top;spacingLeft=4;spacingRight=4;overflow=hidden;rotatable=0;points=[[0,0.5],[1,0.5]];portConstraint=eastwest;" vertex="1" parent="JcYZQ2rRvLhwklENSe09-45">
          <mxGeometry y="52" width="140" height="26" as="geometry" />
        </mxCell>
        <mxCell id="JcYZQ2rRvLhwklENSe09-48" value="PK code" style="text;strokeColor=none;fillColor=none;align=left;verticalAlign=top;spacingLeft=4;spacingRight=4;overflow=hidden;rotatable=0;points=[[0,0.5],[1,0.5]];portConstraint=eastwest;" vertex="1" parent="JcYZQ2rRvLhwklENSe09-45">
          <mxGeometry y="78" width="140" height="26" as="geometry" />
        </mxCell>
        <mxCell id="JcYZQ2rRvLhwklENSe09-49" value="coordinates" style="text;strokeColor=none;fillColor=none;align=left;verticalAlign=top;spacingLeft=4;spacingRight=4;overflow=hidden;rotatable=0;points=[[0,0.5],[1,0.5]];portConstraint=eastwest;" vertex="1" parent="JcYZQ2rRvLhwklENSe09-45">
          <mxGeometry y="104" width="140" height="26" as="geometry" />
        </mxCell>
        <mxCell id="JcYZQ2rRvLhwklENSe09-50" value="population" style="text;strokeColor=none;fillColor=none;align=left;verticalAlign=top;spacingLeft=4;spacingRight=4;overflow=hidden;rotatable=0;points=[[0,0.5],[1,0.5]];portConstraint=eastwest;" vertex="1" parent="JcYZQ2rRvLhwklENSe09-45">
          <mxGeometry y="130" width="140" height="26" as="geometry" />
        </mxCell>
        <mxCell id="JcYZQ2rRvLhwklENSe09-51" value="Coronavirus Data" style="swimlane;fontStyle=0;childLayout=stackLayout;horizontal=1;startSize=26;horizontalStack=0;resizeParent=1;resizeParentMax=0;resizeLast=0;collapsible=1;marginBottom=0;" vertex="1" parent="JcYZQ2rRvLhwklENSe09-1">
          <mxGeometry x="29" y="2085" width="140" height="182" as="geometry" />
        </mxCell>
        <mxCell id="JcYZQ2rRvLhwklENSe09-52" value="Cofirmed" style="text;strokeColor=none;fillColor=none;align=left;verticalAlign=top;spacingLeft=4;spacingRight=4;overflow=hidden;rotatable=0;points=[[0,0.5],[1,0.5]];portConstraint=eastwest;" vertex="1" parent="JcYZQ2rRvLhwklENSe09-51">
          <mxGeometry y="26" width="140" height="26" as="geometry" />
        </mxCell>
        <mxCell id="JcYZQ2rRvLhwklENSe09-53" value="Death" style="text;strokeColor=none;fillColor=none;align=left;verticalAlign=top;spacingLeft=4;spacingRight=4;overflow=hidden;rotatable=0;points=[[0,0.5],[1,0.5]];portConstraint=eastwest;" vertex="1" parent="JcYZQ2rRvLhwklENSe09-51">
          <mxGeometry y="52" width="140" height="26" as="geometry" />
        </mxCell>
        <mxCell id="JcYZQ2rRvLhwklENSe09-54" value="Recover" style="text;strokeColor=none;fillColor=none;align=left;verticalAlign=top;spacingLeft=4;spacingRight=4;overflow=hidden;rotatable=0;points=[[0,0.5],[1,0.5]];portConstraint=eastwest;" vertex="1" parent="JcYZQ2rRvLhwklENSe09-51">
          <mxGeometry y="78" width="140" height="26" as="geometry" />
        </mxCell>
        <mxCell id="JcYZQ2rRvLhwklENSe09-55" value="update time" style="text;strokeColor=none;fillColor=none;align=left;verticalAlign=top;spacingLeft=4;spacingRight=4;overflow=hidden;rotatable=0;points=[[0,0.5],[1,0.5]];portConstraint=eastwest;" vertex="1" parent="JcYZQ2rRvLhwklENSe09-51">
          <mxGeometry y="104" width="140" height="26" as="geometry" />
        </mxCell>
        <mxCell id="JcYZQ2rRvLhwklENSe09-56" value="FK location code" style="text;strokeColor=none;fillColor=none;align=left;verticalAlign=top;spacingLeft=4;spacingRight=4;overflow=hidden;rotatable=0;points=[[0,0.5],[1,0.5]];portConstraint=eastwest;" vertex="1" parent="JcYZQ2rRvLhwklENSe09-51">
          <mxGeometry y="130" width="140" height="26" as="geometry" />
        </mxCell>
        <mxCell id="JcYZQ2rRvLhwklENSe09-57" value="FK from" style="text;strokeColor=none;fillColor=none;align=left;verticalAlign=top;spacingLeft=4;spacingRight=4;overflow=hidden;rotatable=0;points=[[0,0.5],[1,0.5]];portConstraint=eastwest;" vertex="1" parent="JcYZQ2rRvLhwklENSe09-51">
          <mxGeometry y="156" width="140" height="26" as="geometry" />
        </mxCell>
        <mxCell id="JcYZQ2rRvLhwklENSe09-58" value="Data Source" style="swimlane;fontStyle=0;childLayout=stackLayout;horizontal=1;startSize=26;horizontalStack=0;resizeParent=1;resizeParentMax=0;resizeLast=0;collapsible=1;marginBottom=0;" vertex="1" parent="JcYZQ2rRvLhwklENSe09-1">
          <mxGeometry x="333" y="2183" width="140" height="78" as="geometry" />
        </mxCell>
        <mxCell id="JcYZQ2rRvLhwklENSe09-59" value="PK id" style="text;strokeColor=none;fillColor=none;align=left;verticalAlign=top;spacingLeft=4;spacingRight=4;overflow=hidden;rotatable=0;points=[[0,0.5],[1,0.5]];portConstraint=eastwest;" vertex="1" parent="JcYZQ2rRvLhwklENSe09-58">
          <mxGeometry y="26" width="140" height="26" as="geometry" />
        </mxCell>
        <mxCell id="JcYZQ2rRvLhwklENSe09-60" value="from" style="text;strokeColor=none;fillColor=none;align=left;verticalAlign=top;spacingLeft=4;spacingRight=4;overflow=hidden;rotatable=0;points=[[0,0.5],[1,0.5]];portConstraint=eastwest;" vertex="1" parent="JcYZQ2rRvLhwklENSe09-58">
          <mxGeometry y="52" width="140" height="26" as="geometry" />
        </mxCell>
        <mxCell id="JcYZQ2rRvLhwklENSe09-61" value="" style="endArrow=none;html=1;exitX=1;exitY=0.5;exitDx=0;exitDy=0;entryX=0;entryY=0.5;entryDx=0;entryDy=0;" edge="1" parent="JcYZQ2rRvLhwklENSe09-1" source="JcYZQ2rRvLhwklENSe09-56" target="JcYZQ2rRvLhwklENSe09-48">
          <mxGeometry width="50" height="50" relative="1" as="geometry">
            <mxPoint x="378" y="2050" as="sourcePoint" />
            <mxPoint x="428" y="2000" as="targetPoint" />
            <Array as="points">
              <mxPoint x="238" y="2228" />
              <mxPoint x="243" y="2014" />
            </Array>
          </mxGeometry>
        </mxCell>
        <mxCell id="JcYZQ2rRvLhwklENSe09-62" value="" style="endArrow=none;html=1;exitX=1;exitY=0.5;exitDx=0;exitDy=0;entryX=0;entryY=0.5;entryDx=0;entryDy=0;" edge="1" parent="JcYZQ2rRvLhwklENSe09-1" source="JcYZQ2rRvLhwklENSe09-57" target="JcYZQ2rRvLhwklENSe09-59">
          <mxGeometry width="50" height="50" relative="1" as="geometry">
            <mxPoint x="197" y="2315" as="sourcePoint" />
            <mxPoint x="332" y="2197" as="targetPoint" />
            <Array as="points">
              <mxPoint x="269" y="2254" />
              <mxPoint x="269" y="2222" />
            </Array>
          </mxGeometry>
        </mxCell>
        <mxCell id="JcYZQ2rRvLhwklENSe09-63" value="" style="endArrow=none;html=1;exitX=1;exitY=0.5;exitDx=0;exitDy=0;" edge="1" parent="JcYZQ2rRvLhwklENSe09-1" source="JcYZQ2rRvLhwklENSe09-44">
          <mxGeometry width="50" height="50" relative="1" as="geometry">
            <mxPoint x="378" y="2050" as="sourcePoint" />
            <mxPoint x="367" y="2014" as="targetPoint" />
          </mxGeometry>
        </mxCell>
        <mxCell id="JcYZQ2rRvLhwklENSe09-64" value="&lt;div style=&quot;box-sizing: border-box ; width: 100% ; background: #e4e4e4 ; padding: 2px&quot;&gt;location&lt;br&gt;&lt;/div&gt;&lt;table style=&quot;width: 100% ; font-size: 1em&quot; cellspacing=&quot;0&quot; cellpadding=&quot;2&quot;&gt;&lt;tbody&gt;&lt;tr&gt;&lt;td&gt;PK&lt;/td&gt;&lt;td&gt;id&lt;/td&gt;&lt;/tr&gt;&lt;tr&gt;&lt;td&gt;&lt;br&gt;&lt;/td&gt;&lt;td&gt;state&lt;/td&gt;&lt;/tr&gt;&lt;tr&gt;&lt;td&gt;&lt;br&gt;&lt;/td&gt;&lt;td&gt;country&lt;/td&gt;&lt;/tr&gt;&lt;tr&gt;&lt;td&gt;&lt;br&gt;&lt;/td&gt;&lt;td&gt;coordinate id&lt;br&gt;&lt;/td&gt;&lt;/tr&gt;&lt;tr&gt;&lt;td&gt;&lt;br&gt;&lt;/td&gt;&lt;td&gt;population&lt;br&gt;&lt;/td&gt;&lt;/tr&gt;&lt;/tbody&gt;&lt;/table&gt;" style="verticalAlign=top;align=left;overflow=fill;html=1;" vertex="1" parent="JcYZQ2rRvLhwklENSe09-1">
          <mxGeometry x="402" y="1532" width="143" height="117" as="geometry" />
        </mxCell>
        <mxCell id="JcYZQ2rRvLhwklENSe09-65" value="&lt;div style=&quot;box-sizing: border-box ; width: 100% ; background: #e4e4e4 ; padding: 2px&quot;&gt;Data Source&lt;br&gt;&lt;/div&gt;&lt;table style=&quot;width: 100% ; font-size: 1em&quot; cellspacing=&quot;0&quot; cellpadding=&quot;2&quot;&gt;&lt;tbody&gt;&lt;tr&gt;&lt;td&gt;PK&lt;/td&gt;&lt;td&gt;id&lt;/td&gt;&lt;/tr&gt;&lt;tr&gt;&lt;td&gt;&lt;br&gt;&lt;/td&gt;&lt;td&gt;from&lt;/td&gt;&lt;/tr&gt;&lt;/tbody&gt;&lt;/table&gt;" style="verticalAlign=top;align=left;overflow=fill;html=1;" vertex="1" parent="JcYZQ2rRvLhwklENSe09-1">
          <mxGeometry x="404" y="1677" width="143" height="63" as="geometry" />
        </mxCell>
        <mxCell id="JcYZQ2rRvLhwklENSe09-66" value="&lt;div style=&quot;box-sizing: border-box ; width: 100% ; background: #e4e4e4 ; padding: 2px&quot;&gt;Coronavirus Data&lt;/div&gt;&lt;table style=&quot;width: 100% ; font-size: 1em&quot; cellspacing=&quot;0&quot; cellpadding=&quot;2&quot;&gt;&lt;tbody&gt;&lt;tr&gt;&lt;td&gt;FK&lt;/td&gt;&lt;td&gt;location code&lt;br&gt;&lt;/td&gt;&lt;/tr&gt;&lt;tr&gt;&lt;td&gt;FK&lt;br&gt;&lt;/td&gt;&lt;td&gt;from&lt;/td&gt;&lt;/tr&gt;&lt;tr&gt;&lt;td&gt;&lt;br&gt;&lt;/td&gt;&lt;td&gt;confirmed&lt;/td&gt;&lt;/tr&gt;&lt;tr&gt;&lt;td&gt;&lt;br&gt;&lt;/td&gt;&lt;td&gt;deaths&lt;br&gt;&lt;/td&gt;&lt;/tr&gt;&lt;tr&gt;&lt;td&gt;&lt;br&gt;&lt;/td&gt;&lt;td&gt;population&lt;br&gt;&lt;/td&gt;&lt;/tr&gt;&lt;/tbody&gt;&lt;/table&gt;" style="verticalAlign=top;align=left;overflow=fill;html=1;" vertex="1" parent="JcYZQ2rRvLhwklENSe09-1">
          <mxGeometry x="89" y="1543" width="143" height="117" as="geometry" />
        </mxCell>
        <mxCell id="JcYZQ2rRvLhwklENSe09-67" value="&lt;div style=&quot;box-sizing: border-box ; width: 100% ; background: #e4e4e4 ; padding: 2px&quot;&gt;Coordinate&lt;br&gt;&lt;/div&gt;&lt;table style=&quot;width: 100% ; font-size: 1em&quot; cellspacing=&quot;0&quot; cellpadding=&quot;2&quot;&gt;&lt;tbody&gt;&lt;tr&gt;&lt;td&gt;&lt;br&gt;&lt;/td&gt;&lt;td&gt;latitude&lt;/td&gt;&lt;/tr&gt;&lt;tr&gt;&lt;td&gt;&lt;br&gt;&lt;/td&gt;&lt;td&gt;longitude&lt;br&gt;&lt;/td&gt;&lt;/tr&gt;&lt;tr&gt;&lt;td&gt;PK&lt;br&gt;&lt;/td&gt;&lt;td&gt;&amp;nbsp;id&lt;br&gt;&lt;/td&gt;&lt;/tr&gt;&lt;tr&gt;&lt;td&gt;&lt;br&gt;&lt;/td&gt;&lt;td&gt;&lt;br&gt;&lt;/td&gt;&lt;/tr&gt;&lt;/tbody&gt;&lt;/table&gt;" style="verticalAlign=top;align=left;overflow=fill;html=1;" vertex="1" parent="JcYZQ2rRvLhwklENSe09-1">
          <mxGeometry x="402" y="1773" width="143" height="80" as="geometry" />
        </mxCell>
        <mxCell id="JcYZQ2rRvLhwklENSe09-68" value="Data owners" style="shape=umlActor;verticalLabelPosition=bottom;verticalAlign=top;html=1;outlineConnect=0;" vertex="1" parent="JcYZQ2rRvLhwklENSe09-1">
          <mxGeometry x="40" y="370" width="30" height="60" as="geometry" />
        </mxCell>
        <mxCell id="JcYZQ2rRvLhwklENSe09-69" value="&lt;span lang=&quot;EN-US&quot;&gt;Log into personal account&lt;/span&gt;" style="ellipse;whiteSpace=wrap;html=1;" vertex="1" parent="JcYZQ2rRvLhwklENSe09-1">
          <mxGeometry x="213" y="80" width="120" height="80" as="geometry" />
        </mxCell>
        <mxCell id="JcYZQ2rRvLhwklENSe09-70" value="connect to data source" style="ellipse;whiteSpace=wrap;html=1;" vertex="1" parent="JcYZQ2rRvLhwklENSe09-1">
          <mxGeometry x="275" y="185" width="120" height="80" as="geometry" />
        </mxCell>
        <mxCell id="JcYZQ2rRvLhwklENSe09-71" value="" style="endArrow=none;html=1;rounded=0;entryX=0.008;entryY=0.663;entryDx=0;entryDy=0;entryPerimeter=0;" edge="1" parent="JcYZQ2rRvLhwklENSe09-1" target="JcYZQ2rRvLhwklENSe09-69">
          <mxGeometry width="50" height="50" relative="1" as="geometry">
            <mxPoint x="80" y="400" as="sourcePoint" />
            <mxPoint x="382" y="402" as="targetPoint" />
          </mxGeometry>
        </mxCell>
        <mxCell id="JcYZQ2rRvLhwklENSe09-72" value="" style="endArrow=none;html=1;rounded=0;entryX=0.042;entryY=0.325;entryDx=0;entryDy=0;entryPerimeter=0;" edge="1" parent="JcYZQ2rRvLhwklENSe09-1" target="JcYZQ2rRvLhwklENSe09-70">
          <mxGeometry width="50" height="50" relative="1" as="geometry">
            <mxPoint x="80" y="400" as="sourcePoint" />
            <mxPoint x="310" y="280" as="targetPoint" />
          </mxGeometry>
        </mxCell>
        <mxCell id="JcYZQ2rRvLhwklENSe09-73" value="manage access to data source " style="ellipse;whiteSpace=wrap;html=1;" vertex="1" parent="JcYZQ2rRvLhwklENSe09-1">
          <mxGeometry x="337.5" y="309" width="120" height="80" as="geometry" />
        </mxCell>
        <mxCell id="JcYZQ2rRvLhwklENSe09-74" value="" style="endArrow=none;html=1;rounded=0;entryX=0;entryY=0.413;entryDx=0;entryDy=0;entryPerimeter=0;" edge="1" parent="JcYZQ2rRvLhwklENSe09-1" target="JcYZQ2rRvLhwklENSe09-73">
          <mxGeometry width="50" height="50" relative="1" as="geometry">
            <mxPoint x="80" y="400" as="sourcePoint" />
            <mxPoint x="194" y="311" as="targetPoint" />
          </mxGeometry>
        </mxCell>
        <mxCell id="JcYZQ2rRvLhwklENSe09-75" value="build global data policy" style="ellipse;whiteSpace=wrap;html=1;" vertex="1" parent="JcYZQ2rRvLhwklENSe09-1">
          <mxGeometry x="225" y="520" width="120" height="80" as="geometry" />
        </mxCell>
        <mxCell id="JcYZQ2rRvLhwklENSe09-76" value="" style="endArrow=none;html=1;rounded=0;entryX=-0.008;entryY=0.613;entryDx=0;entryDy=0;entryPerimeter=0;" edge="1" parent="JcYZQ2rRvLhwklENSe09-1" target="JcYZQ2rRvLhwklENSe09-75">
          <mxGeometry width="50" height="50" relative="1" as="geometry">
            <mxPoint x="80" y="400" as="sourcePoint" />
            <mxPoint x="520" y="420" as="targetPoint" />
          </mxGeometry>
        </mxCell>
        <mxCell id="JcYZQ2rRvLhwklENSe09-77" value="Create projects" style="ellipse;whiteSpace=wrap;html=1;" vertex="1" parent="JcYZQ2rRvLhwklENSe09-1">
          <mxGeometry x="225" y="415" width="105" height="90" as="geometry" />
        </mxCell>
        <mxCell id="JcYZQ2rRvLhwklENSe09-78" value="" style="endArrow=none;html=1;rounded=0;" edge="1" parent="JcYZQ2rRvLhwklENSe09-1" target="JcYZQ2rRvLhwklENSe09-77">
          <mxGeometry width="50" height="50" relative="1" as="geometry">
            <mxPoint x="80" y="400" as="sourcePoint" />
            <mxPoint x="200" y="300" as="targetPoint" />
          </mxGeometry>
        </mxCell>
        <mxCell id="JcYZQ2rRvLhwklENSe09-79" value="" style="endArrow=classic;html=1;rounded=0;exitX=0.686;exitY=0.011;exitDx=0;exitDy=0;exitPerimeter=0;" edge="1" parent="JcYZQ2rRvLhwklENSe09-1" source="JcYZQ2rRvLhwklENSe09-77" target="JcYZQ2rRvLhwklENSe09-70">
          <mxGeometry width="50" height="50" relative="1" as="geometry">
            <mxPoint x="280" y="430" as="sourcePoint" />
            <mxPoint x="330" y="380" as="targetPoint" />
          </mxGeometry>
        </mxCell>
        <mxCell id="JcYZQ2rRvLhwklENSe09-80" value="&amp;lt;includes&amp;gt;" style="text;html=1;strokeColor=none;fillColor=none;align=center;verticalAlign=middle;whiteSpace=wrap;rounded=0;rotation=-85;" vertex="1" parent="JcYZQ2rRvLhwklENSe09-1">
          <mxGeometry x="275" y="303" width="60" height="30" as="geometry" />
        </mxCell>
        <mxCell id="JcYZQ2rRvLhwklENSe09-81" value="Search policies" style="ellipse;whiteSpace=wrap;html=1;" vertex="1" parent="JcYZQ2rRvLhwklENSe09-1">
          <mxGeometry x="217.5" y="620" width="120" height="80" as="geometry" />
        </mxCell>
        <mxCell id="JcYZQ2rRvLhwklENSe09-82" value="" style="endArrow=none;html=1;rounded=0;entryX=0.021;entryY=0.25;entryDx=0;entryDy=0;entryPerimeter=0;" edge="1" parent="JcYZQ2rRvLhwklENSe09-1" target="JcYZQ2rRvLhwklENSe09-81">
          <mxGeometry width="50" height="50" relative="1" as="geometry">
            <mxPoint x="80" y="400" as="sourcePoint" />
            <mxPoint x="110" y="500" as="targetPoint" />
          </mxGeometry>
        </mxCell>
        <mxCell id="JcYZQ2rRvLhwklENSe09-83" value="Query and review data" style="ellipse;whiteSpace=wrap;html=1;" vertex="1" parent="JcYZQ2rRvLhwklENSe09-1">
          <mxGeometry x="217.5" y="710" width="120" height="80" as="geometry" />
        </mxCell>
        <mxCell id="JcYZQ2rRvLhwklENSe09-84" value="Manage users" style="ellipse;whiteSpace=wrap;html=1;" vertex="1" parent="JcYZQ2rRvLhwklENSe09-1">
          <mxGeometry x="225" y="810" width="120" height="80" as="geometry" />
        </mxCell>
        <mxCell id="JcYZQ2rRvLhwklENSe09-85" value="Admins" style="shape=umlActor;verticalLabelPosition=bottom;verticalAlign=top;html=1;outlineConnect=0;" vertex="1" parent="JcYZQ2rRvLhwklENSe09-1">
          <mxGeometry x="40" y="590" width="30" height="60" as="geometry" />
        </mxCell>
        <mxCell id="JcYZQ2rRvLhwklENSe09-86" value="" style="endArrow=none;html=1;rounded=0;entryX=0.025;entryY=0.725;entryDx=0;entryDy=0;entryPerimeter=0;exitX=1;exitY=0.3333333333333333;exitDx=0;exitDy=0;exitPerimeter=0;" edge="1" parent="JcYZQ2rRvLhwklENSe09-1" source="JcYZQ2rRvLhwklENSe09-85" target="JcYZQ2rRvLhwklENSe09-69">
          <mxGeometry width="50" height="50" relative="1" as="geometry">
            <mxPoint x="70" y="570" as="sourcePoint" />
            <mxPoint x="120" y="520" as="targetPoint" />
          </mxGeometry>
        </mxCell>
        <mxCell id="JcYZQ2rRvLhwklENSe09-87" value="" style="endArrow=none;html=1;rounded=0;exitX=1;exitY=0.3333333333333333;exitDx=0;exitDy=0;exitPerimeter=0;entryX=0.033;entryY=0.288;entryDx=0;entryDy=0;entryPerimeter=0;" edge="1" parent="JcYZQ2rRvLhwklENSe09-1" source="JcYZQ2rRvLhwklENSe09-85" target="JcYZQ2rRvLhwklENSe09-84">
          <mxGeometry width="50" height="50" relative="1" as="geometry">
            <mxPoint x="70" y="690" as="sourcePoint" />
            <mxPoint x="120" y="640" as="targetPoint" />
          </mxGeometry>
        </mxCell>
        <mxCell id="JcYZQ2rRvLhwklENSe09-88" value="" style="endArrow=none;html=1;rounded=0;entryX=-0.004;entryY=0.4;entryDx=0;entryDy=0;entryPerimeter=0;" edge="1" parent="JcYZQ2rRvLhwklENSe09-1" target="JcYZQ2rRvLhwklENSe09-83">
          <mxGeometry width="50" height="50" relative="1" as="geometry">
            <mxPoint x="80" y="400" as="sourcePoint" />
            <mxPoint x="130" y="400" as="targetPoint" />
          </mxGeometry>
        </mxCell>
        <mxCell id="JcYZQ2rRvLhwklENSe09-89" value="" style="endArrow=classic;html=1;rounded=0;exitX=1;exitY=0.5;exitDx=0;exitDy=0;" edge="1" parent="JcYZQ2rRvLhwklENSe09-1" source="JcYZQ2rRvLhwklENSe09-77" target="JcYZQ2rRvLhwklENSe09-73">
          <mxGeometry width="50" height="50" relative="1" as="geometry">
            <mxPoint x="395.99993953479014" y="507.9965412525884" as="sourcePoint" />
            <mxPoint x="431.99993953479014" y="445.9965412525884" as="targetPoint" />
          </mxGeometry>
        </mxCell>
        <mxCell id="JcYZQ2rRvLhwklENSe09-90" value="&amp;lt;includes&amp;gt;" style="text;html=1;strokeColor=none;fillColor=none;align=center;verticalAlign=middle;whiteSpace=wrap;rounded=0;rotation=-60;" vertex="1" parent="JcYZQ2rRvLhwklENSe09-1">
          <mxGeometry x="315.99993953479014" y="405.9965412525884" width="60" height="30" as="geometry" />
        </mxCell>
        <mxCell id="JcYZQ2rRvLhwklENSe09-91" value="&lt;div&gt;Crackers/&lt;/div&gt;&lt;div&gt;Malicious users&lt;/div&gt;&lt;div&gt;&lt;br&gt;&lt;/div&gt;" style="shape=umlActor;verticalLabelPosition=bottom;verticalAlign=top;html=1;outlineConnect=0;" vertex="1" parent="JcYZQ2rRvLhwklENSe09-1">
          <mxGeometry x="884" y="348" width="30" height="61" as="geometry" />
        </mxCell>
        <mxCell id="JcYZQ2rRvLhwklENSe09-92" value="SQL Injection" style="ellipse;whiteSpace=wrap;html=1;strokeColor=#FF0000;" vertex="1" parent="JcYZQ2rRvLhwklENSe09-1">
          <mxGeometry x="601" y="214" width="120" height="80" as="geometry" />
        </mxCell>
        <mxCell id="JcYZQ2rRvLhwklENSe09-93" value="Sniffing Personal Infromation" style="ellipse;whiteSpace=wrap;html=1;strokeColor=#FF0000;" vertex="1" parent="JcYZQ2rRvLhwklENSe09-1">
          <mxGeometry x="622" y="366" width="120" height="80" as="geometry" />
        </mxCell>
        <mxCell id="JcYZQ2rRvLhwklENSe09-94" value="Obtaining password" style="ellipse;whiteSpace=wrap;html=1;strokeColor=#FF0000;" vertex="1" parent="JcYZQ2rRvLhwklENSe09-1">
          <mxGeometry x="626" y="501" width="120" height="80" as="geometry" />
        </mxCell>
        <mxCell id="JcYZQ2rRvLhwklENSe09-95" value="&lt;br&gt;&lt;br&gt;&lt;br&gt;&lt;br&gt;&lt;br&gt;&lt;br&gt;&lt;br&gt;&lt;br&gt;&lt;br&gt;&lt;br&gt;Cross-site request forgery&lt;br&gt;&lt;br&gt;&lt;br&gt;&lt;br&gt;&lt;br&gt;&lt;br&gt;&lt;br&gt;&lt;br&gt;&lt;br&gt;&lt;br&gt;" style="ellipse;whiteSpace=wrap;html=1;strokeColor=#FF0000;" vertex="1" parent="JcYZQ2rRvLhwklENSe09-1">
          <mxGeometry x="622" y="646" width="120" height="80" as="geometry" />
        </mxCell>
        <mxCell id="JcYZQ2rRvLhwklENSe09-96" value="" style="endArrow=none;html=1;rounded=0;exitX=1;exitY=0.5;exitDx=0;exitDy=0;entryX=0;entryY=0.3333333333333333;entryDx=0;entryDy=0;entryPerimeter=0;" edge="1" parent="JcYZQ2rRvLhwklENSe09-1" source="JcYZQ2rRvLhwklENSe09-92" target="JcYZQ2rRvLhwklENSe09-91">
          <mxGeometry width="50" height="50" relative="1" as="geometry">
            <mxPoint x="744" y="310" as="sourcePoint" />
            <mxPoint x="838" y="391" as="targetPoint" />
          </mxGeometry>
        </mxCell>
        <mxCell id="JcYZQ2rRvLhwklENSe09-97" value="" style="endArrow=none;html=1;rounded=0;entryX=0;entryY=0.3333333333333333;entryDx=0;entryDy=0;entryPerimeter=0;exitX=1;exitY=0.5;exitDx=0;exitDy=0;" edge="1" parent="JcYZQ2rRvLhwklENSe09-1" source="JcYZQ2rRvLhwklENSe09-93" target="JcYZQ2rRvLhwklENSe09-91">
          <mxGeometry width="50" height="50" relative="1" as="geometry">
            <mxPoint x="759" y="398" as="sourcePoint" />
            <mxPoint x="809" y="348" as="targetPoint" />
          </mxGeometry>
        </mxCell>
        <mxCell id="JcYZQ2rRvLhwklENSe09-98" value="" style="endArrow=none;html=1;rounded=0;entryX=0;entryY=0.3333333333333333;entryDx=0;entryDy=0;entryPerimeter=0;exitX=1.003;exitY=0.413;exitDx=0;exitDy=0;exitPerimeter=0;" edge="1" parent="JcYZQ2rRvLhwklENSe09-1" source="JcYZQ2rRvLhwklENSe09-94" target="JcYZQ2rRvLhwklENSe09-91">
          <mxGeometry width="50" height="50" relative="1" as="geometry">
            <mxPoint x="752.0000000000041" y="415.9999999999998" as="sourcePoint" />
            <mxPoint x="856" y="379.3333333333335" as="targetPoint" />
          </mxGeometry>
        </mxCell>
        <mxCell id="JcYZQ2rRvLhwklENSe09-99" value="" style="endArrow=none;html=1;rounded=0;entryX=0;entryY=0.3333333333333333;entryDx=0;entryDy=0;entryPerimeter=0;exitX=1;exitY=0.39;exitDx=0;exitDy=0;exitPerimeter=0;" edge="1" parent="JcYZQ2rRvLhwklENSe09-1" source="JcYZQ2rRvLhwklENSe09-95" target="JcYZQ2rRvLhwklENSe09-91">
          <mxGeometry width="50" height="50" relative="1" as="geometry">
            <mxPoint x="756.3600000000001" y="544.04" as="sourcePoint" />
            <mxPoint x="856" y="379.3333333333335" as="targetPoint" />
          </mxGeometry>
        </mxCell>
        <mxCell id="JcYZQ2rRvLhwklENSe09-101" value="" style="endArrow=classic;html=1;rounded=0;exitX=0;exitY=1;exitDx=0;exitDy=0;strokeColor=#FF0000;startArrow=none;" edge="1" parent="JcYZQ2rRvLhwklENSe09-1" source="JcYZQ2rRvLhwklENSe09-102">
          <mxGeometry width="50" height="50" relative="1" as="geometry">
            <mxPoint x="667" y="250" as="sourcePoint" />
            <mxPoint x="339" y="750" as="targetPoint" />
          </mxGeometry>
        </mxCell>
        <mxCell id="JcYZQ2rRvLhwklENSe09-102" value="&lt;font color=&quot;#FF0000&quot;&gt;Threatens&lt;/font&gt;" style="text;html=1;strokeColor=none;fillColor=none;align=center;verticalAlign=middle;whiteSpace=wrap;rounded=0;rotation=-45;" vertex="1" parent="JcYZQ2rRvLhwklENSe09-1">
          <mxGeometry x="440" y="522" width="60" height="30" as="geometry" />
        </mxCell>
        <mxCell id="JcYZQ2rRvLhwklENSe09-103" value="" style="endArrow=none;html=1;rounded=0;exitX=0;exitY=1;exitDx=0;exitDy=0;strokeColor=#FF0000;" edge="1" parent="JcYZQ2rRvLhwklENSe09-1" source="JcYZQ2rRvLhwklENSe09-92" target="JcYZQ2rRvLhwklENSe09-102">
          <mxGeometry width="50" height="50" relative="1" as="geometry">
            <mxPoint x="618.5735931288073" y="282.28427124746213" as="sourcePoint" />
            <mxPoint x="338.9999999999998" y="750" as="targetPoint" />
          </mxGeometry>
        </mxCell>
        <mxCell id="JcYZQ2rRvLhwklENSe09-106" value="" style="endArrow=classic;html=1;rounded=0;fontColor=#FF0000;strokeColor=#82b366;entryX=0;entryY=0.5;entryDx=0;entryDy=0;exitX=1;exitY=0.5;exitDx=0;exitDy=0;fillColor=#d5e8d4;" edge="1" parent="JcYZQ2rRvLhwklENSe09-1" source="JcYZQ2rRvLhwklENSe09-69" target="JcYZQ2rRvLhwklENSe09-93">
          <mxGeometry width="50" height="50" relative="1" as="geometry">
            <mxPoint x="613" y="402" as="sourcePoint" />
            <mxPoint x="381" y="102" as="targetPoint" />
          </mxGeometry>
        </mxCell>
        <mxCell id="JcYZQ2rRvLhwklENSe09-107" value="" style="endArrow=classic;html=1;rounded=0;fontColor=#FF0000;strokeColor=#FF0000;entryX=1;entryY=0.5;entryDx=0;entryDy=0;exitX=-0.004;exitY=0.621;exitDx=0;exitDy=0;exitPerimeter=0;" edge="1" parent="JcYZQ2rRvLhwklENSe09-1" source="JcYZQ2rRvLhwklENSe09-95" target="JcYZQ2rRvLhwklENSe09-84">
          <mxGeometry width="50" height="50" relative="1" as="geometry">
            <mxPoint x="623" y="412" as="sourcePoint" />
            <mxPoint x="343.0000000000043" y="129.99999999999977" as="targetPoint" />
          </mxGeometry>
        </mxCell>
        <mxCell id="JcYZQ2rRvLhwklENSe09-109" value="" style="endArrow=classic;html=1;rounded=0;fontColor=#FF0000;strokeColor=#FF0000;entryX=1;entryY=0.338;entryDx=0;entryDy=0;entryPerimeter=0;exitX=0;exitY=0.5;exitDx=0;exitDy=0;startArrow=none;" edge="1" parent="JcYZQ2rRvLhwklENSe09-1" source="JcYZQ2rRvLhwklENSe09-110" target="JcYZQ2rRvLhwklENSe09-75">
          <mxGeometry width="50" height="50" relative="1" as="geometry">
            <mxPoint x="600" y="264" as="sourcePoint" />
            <mxPoint x="597" y="262" as="targetPoint" />
          </mxGeometry>
        </mxCell>
        <mxCell id="JcYZQ2rRvLhwklENSe09-110" value="&lt;font color=&quot;#FF0000&quot;&gt;Threatens&lt;/font&gt;" style="text;html=1;strokeColor=none;fillColor=none;align=center;verticalAlign=middle;whiteSpace=wrap;rounded=0;rotation=-45;" vertex="1" parent="JcYZQ2rRvLhwklENSe09-1">
          <mxGeometry x="402" y="415" width="60" height="30" as="geometry" />
        </mxCell>
        <mxCell id="JcYZQ2rRvLhwklENSe09-111" value="" style="endArrow=none;html=1;rounded=0;fontColor=#FF0000;strokeColor=#FF0000;entryX=1;entryY=0.338;entryDx=0;entryDy=0;entryPerimeter=0;exitX=0;exitY=0.5;exitDx=0;exitDy=0;" edge="1" parent="JcYZQ2rRvLhwklENSe09-1" source="JcYZQ2rRvLhwklENSe09-92" target="JcYZQ2rRvLhwklENSe09-110">
          <mxGeometry width="50" height="50" relative="1" as="geometry">
            <mxPoint x="601" y="254" as="sourcePoint" />
            <mxPoint x="345" y="547.0399999999997" as="targetPoint" />
          </mxGeometry>
        </mxCell>
        <mxCell id="JcYZQ2rRvLhwklENSe09-114" value="&lt;font color=&quot;#FF0000&quot;&gt;Threatens&lt;/font&gt;" style="text;html=1;strokeColor=none;fillColor=none;align=center;verticalAlign=middle;whiteSpace=wrap;rounded=0;rotation=45;" vertex="1" parent="JcYZQ2rRvLhwklENSe09-1">
          <mxGeometry x="473" y="661" width="60" height="30" as="geometry" />
        </mxCell>
        <mxCell id="JcYZQ2rRvLhwklENSe09-117" value="Auditors" style="shape=umlActor;verticalLabelPosition=bottom;verticalAlign=top;html=1;outlineConnect=0;" vertex="1" parent="JcYZQ2rRvLhwklENSe09-1">
          <mxGeometry x="25" y="973" width="30" height="60" as="geometry" />
        </mxCell>
        <mxCell id="JcYZQ2rRvLhwklENSe09-118" value="Review audit logs" style="ellipse;whiteSpace=wrap;html=1;" vertex="1" parent="JcYZQ2rRvLhwklENSe09-1">
          <mxGeometry x="225" y="910" width="120" height="80" as="geometry" />
        </mxCell>
        <mxCell id="JcYZQ2rRvLhwklENSe09-119" value="" style="endArrow=none;html=1;rounded=0;fontColor=#FF0000;strokeColor=#1A1A1A;exitX=1;exitY=0.3333333333333333;exitDx=0;exitDy=0;exitPerimeter=0;entryX=0;entryY=0.5;entryDx=0;entryDy=0;" edge="1" parent="JcYZQ2rRvLhwklENSe09-1" source="JcYZQ2rRvLhwklENSe09-117" target="JcYZQ2rRvLhwklENSe09-118">
          <mxGeometry width="50" height="50" relative="1" as="geometry">
            <mxPoint x="67" y="914" as="sourcePoint" />
            <mxPoint x="117" y="864" as="targetPoint" />
          </mxGeometry>
        </mxCell>
        <mxCell id="JcYZQ2rRvLhwklENSe09-120" value="" style="endArrow=none;html=1;rounded=0;fontColor=#FF0000;strokeColor=#1A1A1A;" edge="1" parent="JcYZQ2rRvLhwklENSe09-1">
          <mxGeometry width="50" height="50" relative="1" as="geometry">
            <mxPoint x="79" y="398" as="sourcePoint" />
            <mxPoint x="226" y="947" as="targetPoint" />
          </mxGeometry>
        </mxCell>
        <mxCell id="JcYZQ2rRvLhwklENSe09-121" value="Buffer overflow" style="ellipse;whiteSpace=wrap;html=1;strokeColor=#FF0000;" vertex="1" parent="JcYZQ2rRvLhwklENSe09-1">
          <mxGeometry x="636" y="775" width="120" height="80" as="geometry" />
        </mxCell>
        <mxCell id="JcYZQ2rRvLhwklENSe09-122" value="" style="endArrow=none;html=1;rounded=0;exitX=0.958;exitY=0.275;exitDx=0;exitDy=0;exitPerimeter=0;" edge="1" parent="JcYZQ2rRvLhwklENSe09-1" source="JcYZQ2rRvLhwklENSe09-121">
          <mxGeometry width="50" height="50" relative="1" as="geometry">
            <mxPoint x="752" y="687.2" as="sourcePoint" />
            <mxPoint x="881" y="369" as="targetPoint" />
          </mxGeometry>
        </mxCell>
        <mxCell id="JcYZQ2rRvLhwklENSe09-123" value="" style="endArrow=classic;html=1;rounded=0;fontColor=#FF0000;strokeColor=#FF0000;exitX=0.008;exitY=0.638;exitDx=0;exitDy=0;exitPerimeter=0;entryX=1;entryY=0.4;entryDx=0;entryDy=0;entryPerimeter=0;" edge="1" parent="JcYZQ2rRvLhwklENSe09-1" source="JcYZQ2rRvLhwklENSe09-121" target="JcYZQ2rRvLhwklENSe09-75">
          <mxGeometry width="50" height="50" relative="1" as="geometry">
            <mxPoint x="631.52" y="705.6800000000001" as="sourcePoint" />
            <mxPoint x="339" y="660" as="targetPoint" />
          </mxGeometry>
        </mxCell>
        <mxCell id="JcYZQ2rRvLhwklENSe09-124" value="" style="endArrow=classic;html=1;rounded=0;fontColor=#FF0000;strokeColor=#FF0000;exitX=0.008;exitY=0.638;exitDx=0;exitDy=0;exitPerimeter=0;" edge="1" parent="JcYZQ2rRvLhwklENSe09-1">
          <mxGeometry width="50" height="50" relative="1" as="geometry">
            <mxPoint x="646.96" y="836.04" as="sourcePoint" />
            <mxPoint x="341" y="750" as="targetPoint" />
          </mxGeometry>
        </mxCell>
        <mxCell id="aTjn1vBCtD8sbO54tIOz-0" value="" style="shape=cylinder3;whiteSpace=wrap;html=1;boundedLbl=1;backgroundOutline=1;size=15;fontColor=#FF0000;strokeColor=#1A1A1A;" vertex="1" parent="JcYZQ2rRvLhwklENSe09-1">
          <mxGeometry x="-56" y="688" width="60" height="80" as="geometry" />
        </mxCell>
        <mxCell id="aTjn1vBCtD8sbO54tIOz-1" value="&lt;font color=&quot;#1A1A1A&quot;&gt;Server&lt;/font&gt;" style="text;html=1;strokeColor=none;fillColor=none;align=center;verticalAlign=middle;whiteSpace=wrap;rounded=0;fontColor=#FF0000;" vertex="1" parent="JcYZQ2rRvLhwklENSe09-1">
          <mxGeometry x="-56" y="768" width="60" height="30" as="geometry" />
        </mxCell>
        <mxCell id="aTjn1vBCtD8sbO54tIOz-2" value="Validate input" style="ellipse;whiteSpace=wrap;html=1;strokeColor=#82b366;fillColor=#d5e8d4;" vertex="1" parent="JcYZQ2rRvLhwklENSe09-1">
          <mxGeometry x="40" y="716.5" width="97" height="67" as="geometry" />
        </mxCell>
        <mxCell id="aTjn1vBCtD8sbO54tIOz-3" value="" style="endArrow=classic;html=1;rounded=0;fontColor=#1A1A1A;strokeColor=#1A1A1A;exitX=0.046;exitY=0.738;exitDx=0;exitDy=0;exitPerimeter=0;entryX=1;entryY=0.5;entryDx=0;entryDy=0;dashed=1;" edge="1" parent="JcYZQ2rRvLhwklENSe09-1" source="JcYZQ2rRvLhwklENSe09-81" target="aTjn1vBCtD8sbO54tIOz-2">
          <mxGeometry width="50" height="50" relative="1" as="geometry">
            <mxPoint x="193" y="695" as="sourcePoint" />
            <mxPoint x="243" y="645" as="targetPoint" />
          </mxGeometry>
        </mxCell>
        <mxCell id="aTjn1vBCtD8sbO54tIOz-4" value="" style="endArrow=none;html=1;rounded=0;fontColor=#1A1A1A;strokeColor=#1A1A1A;exitX=1;exitY=0;exitDx=0;exitDy=27.5;exitPerimeter=0;" edge="1" parent="JcYZQ2rRvLhwklENSe09-1" source="aTjn1vBCtD8sbO54tIOz-0" target="aTjn1vBCtD8sbO54tIOz-2">
          <mxGeometry width="50" height="50" relative="1" as="geometry">
            <mxPoint y="756" as="sourcePoint" />
            <mxPoint x="50" y="706" as="targetPoint" />
          </mxGeometry>
        </mxCell>
        <mxCell id="aTjn1vBCtD8sbO54tIOz-5" value="&amp;lt;includes&amp;gt;" style="text;html=1;strokeColor=none;fillColor=none;align=center;verticalAlign=middle;whiteSpace=wrap;rounded=0;rotation=-45;" vertex="1" parent="JcYZQ2rRvLhwklENSe09-1">
          <mxGeometry x="157.5" y="701" width="60" height="30" as="geometry" />
        </mxCell>
        <mxCell id="JcYZQ2rRvLhwklENSe09-104" value="&lt;font color=&quot;#66CC00&quot;&gt;Mitigate&lt;/font&gt;" style="text;html=1;strokeColor=none;fillColor=none;align=center;verticalAlign=middle;whiteSpace=wrap;rounded=0;rotation=-45;" vertex="1" parent="JcYZQ2rRvLhwklENSe09-1">
          <mxGeometry x="419" y="469" width="60" height="30" as="geometry" />
        </mxCell>
        <mxCell id="aTjn1vBCtD8sbO54tIOz-7" value="" style="endArrow=classic;html=1;rounded=0;fontColor=#66CC00;strokeColor=#82b366;exitX=0.988;exitY=0.4;exitDx=0;exitDy=0;exitPerimeter=0;entryX=0;entryY=1;entryDx=0;entryDy=0;fillColor=#d5e8d4;" edge="1" parent="JcYZQ2rRvLhwklENSe09-1" source="JcYZQ2rRvLhwklENSe09-81" target="JcYZQ2rRvLhwklENSe09-92">
          <mxGeometry width="50" height="50" relative="1" as="geometry">
            <mxPoint x="331" y="678" as="sourcePoint" />
            <mxPoint x="381" y="628" as="targetPoint" />
          </mxGeometry>
        </mxCell>
        <mxCell id="aTjn1vBCtD8sbO54tIOz-9" value="Encrypt personal information" style="ellipse;whiteSpace=wrap;html=1;strokeColor=#82b366;fillColor=#d5e8d4;" vertex="1" parent="JcYZQ2rRvLhwklENSe09-1">
          <mxGeometry x="-46" y="166" width="97" height="67" as="geometry" />
        </mxCell>
        <mxCell id="aTjn1vBCtD8sbO54tIOz-10" value="" style="endArrow=none;html=1;rounded=0;fontColor=#1A1A1A;strokeColor=#1A1A1A;entryX=0;entryY=0.5;entryDx=0;entryDy=0;" edge="1" parent="JcYZQ2rRvLhwklENSe09-1" target="aTjn1vBCtD8sbO54tIOz-9">
          <mxGeometry width="50" height="50" relative="1" as="geometry">
            <mxPoint x="-36" y="686" as="sourcePoint" />
            <mxPoint x="56.65534587473849" y="743.0628780921561" as="targetPoint" />
          </mxGeometry>
        </mxCell>
        <mxCell id="aTjn1vBCtD8sbO54tIOz-11" value="" style="endArrow=classic;html=1;rounded=0;fontColor=#1A1A1A;strokeColor=#1A1A1A;exitX=0;exitY=0.6;exitDx=0;exitDy=0;exitPerimeter=0;entryX=1;entryY=0.5;entryDx=0;entryDy=0;dashed=1;" edge="1" parent="JcYZQ2rRvLhwklENSe09-1" source="JcYZQ2rRvLhwklENSe09-69" target="aTjn1vBCtD8sbO54tIOz-9">
          <mxGeometry width="50" height="50" relative="1" as="geometry">
            <mxPoint x="163.01999999999998" y="146" as="sourcePoint" />
            <mxPoint x="77" y="216.96000000000004" as="targetPoint" />
          </mxGeometry>
        </mxCell>
        <mxCell id="aTjn1vBCtD8sbO54tIOz-12" value="&amp;lt;includes&amp;gt;" style="text;html=1;strokeColor=none;fillColor=none;align=center;verticalAlign=middle;whiteSpace=wrap;rounded=0;rotation=-30;" vertex="1" parent="JcYZQ2rRvLhwklENSe09-1">
          <mxGeometry x="97.5" y="143.00000000000003" width="60" height="30" as="geometry" />
        </mxCell>
        <mxCell id="aTjn1vBCtD8sbO54tIOz-13" value="&lt;font color=&quot;#66CC00&quot;&gt;Mitigate&lt;/font&gt;" style="text;html=1;strokeColor=none;fillColor=none;align=center;verticalAlign=middle;whiteSpace=wrap;rounded=0;rotation=45;" vertex="1" parent="JcYZQ2rRvLhwklENSe09-1">
          <mxGeometry x="460" y="233" width="60" height="30" as="geometry" />
        </mxCell>
        <mxCell id="aTjn1vBCtD8sbO54tIOz-14" value="Strong password validation" style="ellipse;whiteSpace=wrap;html=1;strokeColor=#82b366;fillColor=#d5e8d4;" vertex="1" parent="JcYZQ2rRvLhwklENSe09-1">
          <mxGeometry x="6.5" y="271" width="97" height="67" as="geometry" />
        </mxCell>
        <mxCell id="aTjn1vBCtD8sbO54tIOz-17" value="" style="endArrow=classic;html=1;rounded=0;fontColor=#1A1A1A;strokeColor=#1A1A1A;entryX=1;entryY=0.5;entryDx=0;entryDy=0;dashed=1;" edge="1" parent="JcYZQ2rRvLhwklENSe09-1" target="aTjn1vBCtD8sbO54tIOz-14">
          <mxGeometry width="50" height="50" relative="1" as="geometry">
            <mxPoint x="276" y="213" as="sourcePoint" />
            <mxPoint x="61" y="209.5" as="targetPoint" />
          </mxGeometry>
        </mxCell>
        <mxCell id="aTjn1vBCtD8sbO54tIOz-18" value="&amp;lt;includes&amp;gt;" style="text;html=1;strokeColor=none;fillColor=none;align=center;verticalAlign=middle;whiteSpace=wrap;rounded=0;rotation=-30;" vertex="1" parent="JcYZQ2rRvLhwklENSe09-1">
          <mxGeometry x="191" y="214.00000000000003" width="60" height="30" as="geometry" />
        </mxCell>
        <mxCell id="aTjn1vBCtD8sbO54tIOz-19" value="" style="endArrow=classic;html=1;rounded=0;fontColor=#1A1A1A;strokeColor=#1A1A1A;exitX=0;exitY=0.6;exitDx=0;exitDy=0;exitPerimeter=0;entryX=1;entryY=0;entryDx=0;entryDy=0;dashed=1;" edge="1" parent="JcYZQ2rRvLhwklENSe09-1" target="aTjn1vBCtD8sbO54tIOz-14">
          <mxGeometry width="50" height="50" relative="1" as="geometry">
            <mxPoint x="223" y="138" as="sourcePoint" />
            <mxPoint x="61" y="209.5" as="targetPoint" />
          </mxGeometry>
        </mxCell>
        <mxCell id="aTjn1vBCtD8sbO54tIOz-20" value="&amp;lt;includes&amp;gt;" style="text;html=1;strokeColor=none;fillColor=none;align=center;verticalAlign=middle;whiteSpace=wrap;rounded=0;rotation=-45;" vertex="1" parent="JcYZQ2rRvLhwklENSe09-1">
          <mxGeometry x="103.5" y="199.00000000000003" width="60" height="30" as="geometry" />
        </mxCell>
        <mxCell id="aTjn1vBCtD8sbO54tIOz-21" value="" style="endArrow=none;html=1;rounded=0;fontColor=#1A1A1A;strokeColor=#1A1A1A;entryX=0;entryY=0.5;entryDx=0;entryDy=0;" edge="1" parent="JcYZQ2rRvLhwklENSe09-1" source="aTjn1vBCtD8sbO54tIOz-0" target="aTjn1vBCtD8sbO54tIOz-14">
          <mxGeometry width="50" height="50" relative="1" as="geometry">
            <mxPoint x="14" y="725.5" as="sourcePoint" />
            <mxPoint x="-36" y="209.5" as="targetPoint" />
          </mxGeometry>
        </mxCell>
        <mxCell id="aTjn1vBCtD8sbO54tIOz-23" value="" style="endArrow=classic;html=1;rounded=0;fontColor=#FF0000;strokeColor=#82b366;entryX=0;entryY=0;entryDx=0;entryDy=0;exitX=0.992;exitY=0.563;exitDx=0;exitDy=0;fillColor=#d5e8d4;exitPerimeter=0;" edge="1" parent="JcYZQ2rRvLhwklENSe09-1" source="JcYZQ2rRvLhwklENSe09-70" target="JcYZQ2rRvLhwklENSe09-94">
          <mxGeometry width="50" height="50" relative="1" as="geometry">
            <mxPoint x="392" y="236.5" as="sourcePoint" />
            <mxPoint x="681" y="522.5" as="targetPoint" />
          </mxGeometry>
        </mxCell>
        <mxCell id="aTjn1vBCtD8sbO54tIOz-24" value="&lt;font color=&quot;#66CC00&quot;&gt;Mitigate&lt;/font&gt;" style="text;html=1;strokeColor=none;fillColor=none;align=center;verticalAlign=middle;whiteSpace=wrap;rounded=0;rotation=45;" vertex="1" parent="JcYZQ2rRvLhwklENSe09-1">
          <mxGeometry x="451" y="294" width="60" height="30" as="geometry" />
        </mxCell>
        <mxCell id="aTjn1vBCtD8sbO54tIOz-25" value="" style="endArrow=classic;html=1;rounded=0;fontColor=#FF0000;strokeColor=#82b366;entryX=0.325;entryY=0.063;entryDx=0;entryDy=0;exitX=1;exitY=0.5;exitDx=0;exitDy=0;fillColor=#d5e8d4;entryPerimeter=0;" edge="1" parent="JcYZQ2rRvLhwklENSe09-1" source="JcYZQ2rRvLhwklENSe09-69" target="JcYZQ2rRvLhwklENSe09-94">
          <mxGeometry width="50" height="50" relative="1" as="geometry">
            <mxPoint x="404.03999999999996" y="240.03999999999996" as="sourcePoint" />
            <mxPoint x="653.5735931288073" y="522.7157287525383" as="targetPoint" />
          </mxGeometry>
        </mxCell>
        <mxCell id="aTjn1vBCtD8sbO54tIOz-29" value="Encoding" style="ellipse;whiteSpace=wrap;html=1;strokeColor=#82b366;fillColor=#d5e8d4;" vertex="1" parent="JcYZQ2rRvLhwklENSe09-1">
          <mxGeometry x="40" y="804" width="97" height="67" as="geometry" />
        </mxCell>
        <mxCell id="aTjn1vBCtD8sbO54tIOz-31" value="" style="endArrow=classic;html=1;rounded=0;fontColor=#FF0000;strokeColor=#82b366;exitX=0.992;exitY=0.563;exitDx=0;exitDy=0;fillColor=#d5e8d4;exitPerimeter=0;" edge="1" parent="JcYZQ2rRvLhwklENSe09-1">
          <mxGeometry width="50" height="50" relative="1" as="geometry">
            <mxPoint x="329.99999999999994" y="460" as="sourcePoint" />
            <mxPoint x="621" y="684" as="targetPoint" />
          </mxGeometry>
        </mxCell>
        <mxCell id="aTjn1vBCtD8sbO54tIOz-32" value="&lt;font color=&quot;#66CC00&quot;&gt;Mitigate&lt;/font&gt;" style="text;html=1;strokeColor=none;fillColor=none;align=center;verticalAlign=middle;whiteSpace=wrap;rounded=0;rotation=45;" vertex="1" parent="JcYZQ2rRvLhwklENSe09-1">
          <mxGeometry x="386.96" y="523.96" width="60" height="30" as="geometry" />
        </mxCell>
        <mxCell id="aTjn1vBCtD8sbO54tIOz-33" value="" style="endArrow=classic;html=1;rounded=0;fontColor=#1A1A1A;strokeColor=#1A1A1A;entryX=1;entryY=0.5;entryDx=0;entryDy=0;dashed=1;exitX=0;exitY=1;exitDx=0;exitDy=0;" edge="1" parent="JcYZQ2rRvLhwklENSe09-1" source="JcYZQ2rRvLhwklENSe09-77" target="aTjn1vBCtD8sbO54tIOz-29">
          <mxGeometry width="50" height="50" relative="1" as="geometry">
            <mxPoint x="286" y="223" as="sourcePoint" />
            <mxPoint x="113.5" y="314.5" as="targetPoint" />
          </mxGeometry>
        </mxCell>
        <mxCell id="aTjn1vBCtD8sbO54tIOz-34" value="&amp;lt;includes&amp;gt;" style="text;html=1;strokeColor=none;fillColor=none;align=center;verticalAlign=middle;whiteSpace=wrap;rounded=0;rotation=-65;" vertex="1" parent="JcYZQ2rRvLhwklENSe09-1">
          <mxGeometry x="191" y="501" width="60" height="30" as="geometry" />
        </mxCell>
        <mxCell id="aTjn1vBCtD8sbO54tIOz-36" value="" style="endArrow=none;html=1;rounded=0;fontColor=#1A1A1A;strokeColor=#1A1A1A;exitX=1;exitY=1;exitDx=0;exitDy=-15;exitPerimeter=0;entryX=0;entryY=0.5;entryDx=0;entryDy=0;" edge="1" parent="JcYZQ2rRvLhwklENSe09-1" source="aTjn1vBCtD8sbO54tIOz-0" target="aTjn1vBCtD8sbO54tIOz-29">
          <mxGeometry width="50" height="50" relative="1" as="geometry">
            <mxPoint x="14" y="725.5" as="sourcePoint" />
            <mxPoint x="56.65534587473849" y="743.0628780921561" as="targetPoint" />
          </mxGeometry>
        </mxCell>
      </root>
    </mxGraphModel>
  </diagram>
  <diagram name="Page-2" id="vWXingYy36qwnGROdr9y">
    <mxGraphModel dx="1186" dy="790" grid="1" gridSize="10" guides="1" tooltips="1" connect="1" arrows="1" fold="1" page="1" pageScale="1" pageWidth="850" pageHeight="1100" math="0" shadow="0">
      <root>
        <mxCell id="uxdPfEvbi6vGh2MHvjIU-0" />
        <mxCell id="uxdPfEvbi6vGh2MHvjIU-1" parent="uxdPfEvbi6vGh2MHvjIU-0" />
        <mxCell id="949uCCy_Z0GsvPWzsYu_-0" value="&lt;span style=&quot;box-sizing: inherit ; color: rgb(29 , 28 , 29) ; font-family: , , &amp;#34;applelogo&amp;#34; , sans-serif ; font-size: 15px ; font-style: normal ; letter-spacing: normal ; text-align: left ; text-indent: 0px ; text-transform: none ; word-spacing: 0px ; background-color: rgb(248 , 248 , 248)&quot;&gt;RPA Journal file processing startup&lt;/span&gt;" style="rounded=0;whiteSpace=wrap;html=1;" parent="uxdPfEvbi6vGh2MHvjIU-1" vertex="1">
          <mxGeometry x="290" y="360" width="240" height="60" as="geometry" />
        </mxCell>
        <mxCell id="949uCCy_Z0GsvPWzsYu_-1" value="&lt;span style=&quot;color: rgb(29 , 28 , 29) ; font-family: , , &amp;#34;applelogo&amp;#34; , sans-serif ; font-size: 15px ; font-style: normal ; font-weight: 400 ; letter-spacing: normal ; text-align: left ; text-indent: 0px ; text-transform: none ; word-spacing: 0px ; background-color: rgb(248 , 248 , 248) ; display: inline ; float: none&quot;&gt;R2A Journal Job Startup&lt;span&gt; &lt;br&gt;&lt;/span&gt;&lt;/span&gt;" style="rounded=0;whiteSpace=wrap;html=1;" parent="uxdPfEvbi6vGh2MHvjIU-1" vertex="1">
          <mxGeometry x="290" y="450" width="240" height="60" as="geometry" />
        </mxCell>
        <mxCell id="949uCCy_Z0GsvPWzsYu_-2" value="&lt;span style=&quot;color: rgb(29 , 28 , 29) ; font-family: , , &amp;#34;applelogo&amp;#34; , sans-serif ; font-size: 15px ; font-style: normal ; font-weight: 400 ; letter-spacing: normal ; text-align: left ; text-indent: 0px ; text-transform: none ; word-spacing: 0px ; background-color: rgb(248 , 248 , 248) ; display: inline ; float: none&quot;&gt;r2a journal file combiner start&lt;/span&gt;" style="rounded=0;whiteSpace=wrap;html=1;" parent="uxdPfEvbi6vGh2MHvjIU-1" vertex="1">
          <mxGeometry x="290" y="540" width="240" height="60" as="geometry" />
        </mxCell>
        <mxCell id="949uCCy_Z0GsvPWzsYu_-3" value="&lt;span style=&quot;color: rgb(29 , 28 , 29) ; font-family: , , &amp;#34;applelogo&amp;#34; , sans-serif ; font-size: 15px ; font-style: normal ; font-weight: 400 ; letter-spacing: normal ; text-align: left ; text-indent: 0px ; text-transform: none ; word-spacing: 0px ; background-color: rgb(248 , 248 , 248) ; display: inline ; float: none&quot;&gt;RPA Journal file processing&lt;/span&gt;" style="rounded=0;whiteSpace=wrap;html=1;" parent="uxdPfEvbi6vGh2MHvjIU-1" vertex="1">
          <mxGeometry x="290" y="630" width="240" height="60" as="geometry" />
        </mxCell>
        <mxCell id="949uCCy_Z0GsvPWzsYu_-6" value="&lt;span style=&quot;color: rgb(29 , 28 , 29) ; font-family: , , &amp;#34;applelogo&amp;#34; , sans-serif ; font-size: 15px ; font-style: normal ; font-weight: 400 ; letter-spacing: normal ; text-align: left ; text-indent: 0px ; text-transform: none ; word-spacing: 0px ; background-color: rgb(248 , 248 , 248) ; display: inline ; float: none&quot;&gt;&lt;span&gt;&amp;nbsp;&lt;/span&gt;RPA Journal report created&lt;/span&gt;" style="rounded=0;whiteSpace=wrap;html=1;" parent="uxdPfEvbi6vGh2MHvjIU-1" vertex="1">
          <mxGeometry x="290" y="730" width="240" height="60" as="geometry" />
        </mxCell>
        <mxCell id="949uCCy_Z0GsvPWzsYu_-7" value="&lt;span style=&quot;color: rgb(29 , 28 , 29) ; font-family: , , &amp;#34;applelogo&amp;#34; , sans-serif ; font-size: 15px ; font-style: normal ; font-weight: 400 ; letter-spacing: normal ; text-align: left ; text-indent: 0px ; text-transform: none ; word-spacing: 0px ; background-color: rgb(248 , 248 , 248) ; display: inline ; float: none&quot;&gt;R2A Journal file combiner end&lt;/span&gt;" style="rounded=0;whiteSpace=wrap;html=1;" parent="uxdPfEvbi6vGh2MHvjIU-1" vertex="1">
          <mxGeometry x="290" y="820" width="240" height="60" as="geometry" />
        </mxCell>
        <mxCell id="949uCCy_Z0GsvPWzsYu_-8" value="" style="endArrow=classic;html=1;rounded=0;exitX=0.5;exitY=1;exitDx=0;exitDy=0;" parent="uxdPfEvbi6vGh2MHvjIU-1" source="949uCCy_Z0GsvPWzsYu_-0" target="949uCCy_Z0GsvPWzsYu_-1" edge="1">
          <mxGeometry width="50" height="50" relative="1" as="geometry">
            <mxPoint x="400" y="470" as="sourcePoint" />
            <mxPoint x="450" y="420" as="targetPoint" />
          </mxGeometry>
        </mxCell>
        <mxCell id="949uCCy_Z0GsvPWzsYu_-9" value="" style="endArrow=classic;html=1;rounded=0;exitX=0.5;exitY=1;exitDx=0;exitDy=0;" parent="uxdPfEvbi6vGh2MHvjIU-1" edge="1">
          <mxGeometry width="50" height="50" relative="1" as="geometry">
            <mxPoint x="409.5" y="510" as="sourcePoint" />
            <mxPoint x="409.5" y="540" as="targetPoint" />
          </mxGeometry>
        </mxCell>
        <mxCell id="949uCCy_Z0GsvPWzsYu_-11" value="" style="endArrow=classic;html=1;rounded=0;exitX=0.5;exitY=1;exitDx=0;exitDy=0;" parent="uxdPfEvbi6vGh2MHvjIU-1" edge="1">
          <mxGeometry width="50" height="50" relative="1" as="geometry">
            <mxPoint x="409.5" y="600" as="sourcePoint" />
            <mxPoint x="409.5" y="630" as="targetPoint" />
          </mxGeometry>
        </mxCell>
        <mxCell id="949uCCy_Z0GsvPWzsYu_-13" value="" style="curved=1;endArrow=classic;html=1;rounded=0;exitX=1;exitY=0.5;exitDx=0;exitDy=0;entryX=1;entryY=0.5;entryDx=0;entryDy=0;" parent="uxdPfEvbi6vGh2MHvjIU-1" source="949uCCy_Z0GsvPWzsYu_-3" target="949uCCy_Z0GsvPWzsYu_-0" edge="1">
          <mxGeometry width="50" height="50" relative="1" as="geometry">
            <mxPoint x="530" y="700" as="sourcePoint" />
            <mxPoint x="570" y="390" as="targetPoint" />
            <Array as="points">
              <mxPoint x="530" y="650" />
              <mxPoint x="620" y="440" />
            </Array>
          </mxGeometry>
        </mxCell>
        <mxCell id="949uCCy_Z0GsvPWzsYu_-14" value="" style="curved=1;endArrow=classic;html=1;rounded=0;exitX=0;exitY=0.5;exitDx=0;exitDy=0;entryX=0;entryY=0.5;entryDx=0;entryDy=0;" parent="uxdPfEvbi6vGh2MHvjIU-1" source="949uCCy_Z0GsvPWzsYu_-0" target="949uCCy_Z0GsvPWzsYu_-3" edge="1">
          <mxGeometry width="50" height="50" relative="1" as="geometry">
            <mxPoint x="360" y="670" as="sourcePoint" />
            <mxPoint x="410" y="620" as="targetPoint" />
            <Array as="points">
              <mxPoint x="200" y="470" />
              <mxPoint x="180" y="560" />
              <mxPoint x="190" y="580" />
            </Array>
          </mxGeometry>
        </mxCell>
      </root>
    </mxGraphModel>
  </diagram>
</mxfile>
